<svg width="320" height="185" viewBox="0 0 320 185" fill="none" xmlns="http://www.w3.org/2000/svg">
<g clip-path="url(#clip0)">
<path d="M147.77 175.357C147.297 175.356 146.833 175.233 146.421 175L68.4613 130.924C67.8276 130.565 67.3623 129.969 67.1674 129.267C66.9725 128.565 67.064 127.814 67.4218 127.18L128.825 18.5707C129.003 18.2566 129.241 17.9805 129.525 17.7582C129.809 17.5359 130.134 17.3718 130.482 17.2753C130.83 17.1788 131.193 17.1517 131.551 17.1956C131.909 17.2395 132.255 17.3536 132.569 17.5312L210.529 61.607C211.163 61.9662 211.628 62.5621 211.823 63.264C212.018 63.9659 211.927 64.7164 211.569 65.351L150.165 173.96C149.989 174.275 149.751 174.551 149.467 174.774C149.183 174.996 148.857 175.16 148.509 175.255C148.268 175.322 148.02 175.356 147.77 175.357Z" fill="#E6E6E6"/>
<path d="M126.651 22.8259L126.338 23.38L208.731 69.962L209.044 69.4079L126.651 22.8259Z" fill="white"/>
<path d="M121.012 32.8001L120.699 33.3542L203.092 79.9363L203.405 79.3822L121.012 32.8001Z" fill="white"/>
<path d="M115.373 42.7745L115.06 43.3286L197.453 89.9107L197.766 89.3565L115.373 42.7745Z" fill="white"/>
<path d="M109.734 52.7487L109.42 53.3029L191.813 99.8849L192.127 99.3308L109.734 52.7487Z" fill="white"/>
<path d="M104.095 62.723L103.781 63.2771L186.174 109.859L186.488 109.305L104.095 62.723Z" fill="white"/>
<path d="M98.4555 72.6972L98.1422 73.2513L180.535 119.833L180.849 119.279L98.4555 72.6972Z" fill="white"/>
<path d="M92.8164 82.6716L92.5031 83.2257L174.896 129.808L175.209 129.254L92.8164 82.6716Z" fill="white"/>
<path d="M87.1773 92.6458L86.864 93.2L169.257 139.782L169.57 139.228L87.1773 92.6458Z" fill="white"/>
<path d="M81.5382 102.62L81.2249 103.174L163.618 149.756L163.931 149.202L81.5382 102.62Z" fill="white"/>
<path d="M75.8991 112.594L75.5858 113.148L157.979 159.73L158.292 159.176L75.8991 112.594Z" fill="white"/>
<path d="M70.26 122.569L69.9467 123.123L152.34 169.705L152.653 169.151L70.26 122.569Z" fill="white"/>
<path d="M140.518 158.838C140.045 158.837 139.58 158.714 139.169 158.481L61.209 114.405C60.5753 114.046 60.11 113.45 59.9152 112.748C59.7203 112.046 59.8117 111.295 60.1695 110.661L121.573 2.05183C121.751 1.73767 121.988 1.46156 122.273 1.23928C122.557 1.01701 122.882 0.852909 123.23 0.756373C123.577 0.659838 123.941 0.632754 124.299 0.676667C124.657 0.72058 125.003 0.834634 125.317 1.01231L203.277 45.0881C203.911 45.4473 204.376 46.0432 204.571 46.7451C204.766 47.447 204.675 48.1975 204.317 48.8321L142.913 157.441C142.736 157.756 142.499 158.032 142.215 158.255C141.93 158.477 141.605 158.641 141.257 158.737C141.016 158.803 140.767 158.837 140.518 158.838Z" fill="#F2F2F2"/>
<path d="M119.399 6.30684L119.085 6.86096L201.478 53.443L201.792 52.8889L119.399 6.30684Z" fill="white"/>
<path d="M113.76 16.2811L113.446 16.8352L195.839 63.4172L196.153 62.8631L113.76 16.2811Z" fill="white"/>
<path d="M108.121 26.2555L107.807 26.8096L190.2 73.3916L190.514 72.8375L108.121 26.2555Z" fill="white"/>
<path d="M102.481 36.2297L102.168 36.7838L184.561 83.3658L184.875 82.8117L102.481 36.2297Z" fill="white"/>
<path d="M96.8423 46.2039L96.5291 46.7581L178.922 93.3401L179.235 92.786L96.8423 46.2039Z" fill="white"/>
<path d="M91.2032 56.1782L90.89 56.7323L173.283 103.314L173.596 102.76L91.2032 56.1782Z" fill="white"/>
<path d="M85.5641 66.1524L85.2509 66.7065L167.644 113.289L167.957 112.734L85.5641 66.1524Z" fill="white"/>
<path d="M79.925 76.1268L79.6118 76.6809L162.005 123.263L162.318 122.709L79.925 76.1268Z" fill="white"/>
<path d="M74.2859 86.101L73.9727 86.6552L156.366 133.237L156.679 132.683L74.2859 86.101Z" fill="white"/>
<path d="M68.6468 96.0754L68.3336 96.6295L150.727 143.212L151.04 142.657L68.6468 96.0754Z" fill="white"/>
<path d="M63.0078 106.05L62.6945 106.604L145.088 153.186L145.401 152.632L63.0078 106.05Z" fill="white"/>
<path d="M132.749 0H8.15616V173.248H132.749C133.196 173.248 133.626 173.071 133.942 172.754C134.258 172.438 134.436 172.008 134.436 171.561V1.68748C134.436 1.23994 134.258 0.810728 133.942 0.494266C133.626 0.177804 133.196 9.61668e-06 132.749 0V0ZM15.1873 168.467C14.5755 168.467 13.9773 168.286 13.4686 167.946C12.9598 167.606 12.5633 167.123 12.3291 166.557C12.0949 165.992 12.0337 165.37 12.1531 164.77C12.2724 164.17 12.5671 163.619 12.9997 163.186C13.4324 162.753 13.9837 162.459 14.5838 162.339C15.1839 162.22 15.8059 162.281 16.3713 162.515C16.9366 162.749 17.4197 163.146 17.7597 163.655C18.0996 164.163 18.2811 164.762 18.2811 165.373C18.2811 165.78 18.201 166.182 18.0456 166.557C17.8901 166.933 17.6622 167.274 17.3749 167.561C17.0877 167.848 16.7466 168.076 16.3713 168.232C15.9959 168.387 15.5936 168.467 15.1873 168.467V168.467ZM15.1873 152.717C14.5755 152.717 13.9773 152.536 13.4686 152.196C12.9598 151.856 12.5633 151.373 12.3291 150.808C12.095 150.242 12.0337 149.62 12.1531 149.02C12.2724 148.42 12.5671 147.869 12.9997 147.436C13.4324 147.003 13.9837 146.709 14.5838 146.589C15.1839 146.47 15.8059 146.531 16.3713 146.765C16.9366 147 17.4197 147.396 17.7597 147.905C18.0996 148.414 18.2811 149.012 18.2811 149.624C18.2811 150.03 18.201 150.432 18.0456 150.808C17.8901 151.183 17.6622 151.524 17.3749 151.811C17.0877 152.099 16.7466 152.326 16.3713 152.482C15.9959 152.637 15.5936 152.717 15.1873 152.717V152.717ZM15.1873 136.967C14.5755 136.967 13.9773 136.786 13.4686 136.446C12.9598 136.106 12.5633 135.623 12.3291 135.058C12.095 134.492 12.0337 133.87 12.1531 133.27C12.2724 132.67 12.5671 132.119 12.9997 131.686C13.4324 131.254 13.9837 130.959 14.5838 130.839C15.1839 130.72 15.8059 130.781 16.3713 131.016C16.9366 131.25 17.4197 131.646 17.7597 132.155C18.0996 132.664 18.2811 133.262 18.2811 133.874C18.2811 134.28 18.201 134.682 18.0456 135.058C17.8901 135.433 17.6622 135.774 17.3749 136.061C17.0877 136.349 16.7466 136.577 16.3713 136.732C15.9959 136.887 15.5936 136.967 15.1873 136.967V136.967ZM15.1873 121.218C14.5755 121.218 13.9773 121.036 13.4686 120.696C12.9598 120.356 12.5633 119.873 12.3291 119.308C12.095 118.743 12.0337 118.121 12.1531 117.52C12.2724 116.92 12.5671 116.369 12.9997 115.936C13.4324 115.504 13.9837 115.209 14.5838 115.09C15.1839 114.97 15.8059 115.032 16.3713 115.266C16.9366 115.5 17.4197 115.896 17.7597 116.405C18.0996 116.914 18.2811 117.512 18.2811 118.124C18.2811 118.53 18.201 118.932 18.0456 119.308C17.8901 119.683 17.6622 120.024 17.3749 120.312C17.0877 120.599 16.7466 120.827 16.3713 120.982C15.9959 121.138 15.5936 121.218 15.1873 121.218V121.218ZM15.1873 105.468C14.5755 105.468 13.9773 105.286 13.4686 104.946C12.9598 104.606 12.5633 104.123 12.3291 103.558C12.095 102.993 12.0337 102.371 12.1531 101.771C12.2724 101.17 12.5671 100.619 12.9997 100.186C13.4324 99.7538 13.9837 99.4592 14.5838 99.3398C15.1839 99.2204 15.8059 99.2817 16.3713 99.5158C16.9366 99.75 17.4197 100.147 17.7597 100.655C18.0996 101.164 18.2811 101.762 18.2811 102.374C18.2811 102.78 18.201 103.183 18.0456 103.558C17.8901 103.933 17.6622 104.274 17.3749 104.562C17.0877 104.849 16.7466 105.077 16.3713 105.232C15.9959 105.388 15.5936 105.468 15.1873 105.468V105.468ZM15.1873 89.7179C14.5755 89.7179 13.9773 89.5365 13.4686 89.1965C12.9598 88.8566 12.5633 88.3734 12.3291 87.8081C12.095 87.2428 12.0337 86.6208 12.1531 86.0207C12.2724 85.4205 12.5671 84.8693 12.9997 84.4366C13.4324 84.004 13.9837 83.7093 14.5838 83.5899C15.1839 83.4706 15.8059 83.5318 16.3713 83.766C16.9366 84.0001 17.4197 84.3967 17.7597 84.9054C18.0996 85.4142 18.2811 86.0123 18.2811 86.6242C18.2811 87.0305 18.201 87.4328 18.0456 87.8081C17.8901 88.1835 17.6622 88.5245 17.3749 88.8118C17.0877 89.0991 16.7466 89.327 16.3713 89.4824C15.9959 89.6379 15.5936 89.7179 15.1873 89.7179V89.7179ZM15.1873 73.9681C14.5755 73.9681 13.9773 73.7866 13.4686 73.4467C12.9598 73.1067 12.5633 72.6236 12.3291 72.0583C12.095 71.493 12.0337 70.8709 12.1531 70.2708C12.2724 69.6707 12.5671 69.1194 12.9997 68.6868C13.4324 68.2541 13.9837 67.9595 14.5838 67.8401C15.1839 67.7207 15.8059 67.782 16.3713 68.0161C16.9366 68.2503 17.4197 68.6468 17.7597 69.1556C18.0996 69.6643 18.2811 70.2625 18.2811 70.8744C18.2811 71.2806 18.201 71.6829 18.0456 72.0583C17.8901 72.4336 17.6622 72.7747 17.3749 73.062C17.0877 73.3492 16.7466 73.5771 16.3713 73.7326C15.9959 73.8881 15.5936 73.9681 15.1873 73.9681V73.9681ZM15.1873 58.2182C14.5755 58.2182 13.9773 58.0368 13.4686 57.6968C12.9598 57.3569 12.5633 56.8737 12.3291 56.3084C12.095 55.7431 12.0337 55.1211 12.1531 54.5209C12.2724 53.9208 12.5671 53.3696 12.9997 52.9369C13.4324 52.5042 13.9837 52.2096 14.5838 52.0902C15.1839 51.9709 15.8059 52.0321 16.3713 52.2663C16.9366 52.5004 17.4197 52.897 17.7597 53.4057C18.0996 53.9145 18.2811 54.5126 18.2811 55.1245C18.2811 55.5308 18.201 55.9331 18.0456 56.3084C17.8901 56.6838 17.6622 57.0248 17.3749 57.3121C17.0877 57.5994 16.7466 57.8273 16.3713 57.9827C15.9959 58.1382 15.5936 58.2182 15.1873 58.2182V58.2182ZM15.1873 42.4684C14.5755 42.4684 13.9773 42.2869 13.4686 41.947C12.9598 41.607 12.5633 41.1239 12.3291 40.5586C12.095 39.9933 12.0337 39.3712 12.1531 38.7711C12.2724 38.171 12.5671 37.6197 12.9997 37.187C13.4324 36.7544 13.9837 36.4597 14.5838 36.3404C15.1839 36.221 15.8059 36.2823 16.3713 36.5164C16.9366 36.7506 17.4197 37.1471 17.7597 37.6559C18.0996 38.1646 18.2811 38.7628 18.2811 39.3746C18.2811 39.7809 18.201 40.1832 18.0456 40.5586C17.8901 40.9339 17.6622 41.275 17.3749 41.5622C17.0877 41.8495 16.7466 42.0774 16.3713 42.2329C15.9959 42.3883 15.5936 42.4684 15.1873 42.4684V42.4684ZM15.1873 26.7185C14.5755 26.7185 13.9773 26.5371 13.4686 26.1971C12.9598 25.8572 12.5633 25.374 12.3291 24.8087C12.0949 24.2434 12.0337 23.6214 12.1531 23.0212C12.2724 22.4211 12.5671 21.8699 12.9997 21.4372C13.4324 21.0045 13.9837 20.7099 14.5838 20.5905C15.1839 20.4711 15.8059 20.5324 16.3713 20.7665C16.9366 21.0007 17.4197 21.3972 17.7597 21.906C18.0996 22.4148 18.2811 23.0129 18.2811 23.6248C18.2811 24.0311 18.201 24.4334 18.0456 24.8087C17.8901 25.184 17.6622 25.5251 17.3749 25.8124C17.0877 26.0997 16.7466 26.3275 16.3713 26.483C15.9959 26.6385 15.5936 26.7185 15.1873 26.7185V26.7185ZM15.1873 10.9687C14.5755 10.9687 13.9773 10.7872 13.4686 10.4473C12.9598 10.1073 12.5633 9.62415 12.3291 9.05885C12.0949 8.49355 12.0337 7.8715 12.1531 7.27137C12.2724 6.67125 12.5671 6.12 12.9997 5.68734C13.4324 5.25467 13.9837 4.96002 14.5838 4.84065C15.1839 4.72128 15.8059 4.78254 16.3713 5.0167C16.9366 5.25085 17.4197 5.64739 17.7597 6.15615C18.0996 6.66491 18.2811 7.26305 18.2811 7.87493C18.2811 8.2812 18.201 8.6835 18.0456 9.05884C17.8901 9.43419 17.6622 9.77525 17.3749 10.0625C17.0877 10.3498 16.7466 10.5777 16.3713 10.7332C15.9959 10.8886 15.5936 10.9687 15.1873 10.9687V10.9687Z" fill="#3F3D56"/>
<path d="M8.15617 9.56248C7.32136 9.56248 0 9.52306 0 8.15624C0 6.78942 7.32136 6.75 8.15617 6.75V7.31249C3.84397 7.31249 1.04788 7.7952 0.59758 8.15624C1.04788 8.51727 3.84397 8.99998 8.15617 8.99998C12.4588 8.99998 15.252 8.51931 15.7117 8.15872C15.4929 8.00422 14.5992 7.68041 12.2021 7.47318L12.2505 6.91288C16.3123 7.26389 16.3123 7.91221 16.3123 8.15624C16.3123 9.52306 8.99099 9.56248 8.15617 9.56248Z" fill="#2F2E41"/>
<path d="M8.15617 25.031C7.32136 25.031 0 24.9916 0 23.6247C0 22.2579 7.32136 22.2185 8.15617 22.2185V22.781C3.84397 22.781 1.04788 23.2637 0.59758 23.6247C1.04788 23.9858 3.84397 24.4685 8.15617 24.4685C12.4588 24.4685 15.252 23.9878 15.7117 23.6272C15.4929 23.4727 14.5992 23.1489 12.2021 22.9417L12.2505 22.3814C16.3123 22.7324 16.3123 23.3807 16.3123 23.6248C16.3123 24.9916 8.99099 25.031 8.15617 25.031Z" fill="#2F2E41"/>
<path d="M8.15617 40.7809C7.32136 40.7809 0 40.7414 0 39.3746C0 38.0078 7.32136 37.9684 8.15617 37.9684V38.5309C3.84397 38.5309 1.04788 39.0136 0.59758 39.3746C1.04788 39.7357 3.84397 40.2184 8.15617 40.2184C12.4588 40.2184 15.252 39.7377 15.7117 39.3771C15.4929 39.2226 14.5992 38.8988 12.2021 38.6916L12.2505 38.1313C16.3123 38.4823 16.3123 39.1306 16.3123 39.3746C16.3123 40.7414 8.99099 40.7809 8.15617 40.7809Z" fill="#2F2E41"/>
<path d="M8.15617 56.5308C7.32136 56.5308 0 56.4914 0 55.1245C0 53.7577 7.32136 53.7183 8.15617 53.7183V54.2808C3.84397 54.2808 1.04788 54.7635 0.59758 55.1245C1.04788 55.4856 3.84397 55.9683 8.15617 55.9683C12.4588 55.9683 15.252 55.4876 15.7117 55.127C15.4929 54.9725 14.5992 54.6487 12.2021 54.4414L12.2505 53.8812C16.3123 54.2322 16.3123 54.8805 16.3123 55.1245C16.3123 56.4914 8.99099 56.5308 8.15617 56.5308Z" fill="#2F2E41"/>
<path d="M8.15617 72.2805C7.32136 72.2805 0 72.2411 0 70.8743C0 69.5074 7.32136 69.468 8.15617 69.468V70.0305C3.84397 70.0305 1.04788 70.5132 0.59758 70.8743C1.04788 71.2353 3.84397 71.718 8.15617 71.718C12.4588 71.718 15.252 71.2373 15.7117 70.8767C15.4929 70.7223 14.5992 70.3984 12.2021 70.1912L12.2505 69.6309C16.3123 69.9819 16.3123 70.6302 16.3123 70.8743C16.3123 72.2411 8.99099 72.2805 8.15617 72.2805Z" fill="#2F2E41"/>
<path d="M8.15617 88.0304C7.32136 88.0304 0 87.991 0 86.6241C0 85.2573 7.32136 85.2179 8.15617 85.2179V85.7804C3.84397 85.7804 1.04788 86.2631 0.59758 86.6241C1.04788 86.9852 3.84397 87.4679 8.15617 87.4679C12.4588 87.4679 15.252 86.9872 15.7117 86.6266C15.4929 86.4721 14.5992 86.1483 12.2021 85.9411L12.2505 85.3808C16.3123 85.7318 16.3123 86.3801 16.3123 86.6241C16.3123 87.991 8.99099 88.0304 8.15617 88.0304Z" fill="#2F2E41"/>
<path d="M8.15617 103.78C7.32136 103.78 0 103.741 0 102.374C0 101.007 7.32136 100.968 8.15617 100.968V101.53C3.84397 101.53 1.04788 102.013 0.59758 102.374C1.04788 102.735 3.84397 103.218 8.15617 103.218C12.4588 103.218 15.252 102.737 15.7117 102.377C15.4929 102.222 14.5992 101.898 12.2021 101.691L12.2505 101.131C16.3123 101.482 16.3123 102.13 16.3123 102.374C16.3123 103.741 8.99099 103.78 8.15617 103.78Z" fill="#2F2E41"/>
<path d="M8.15617 119.53C7.32136 119.53 0 119.491 0 118.124C0 116.757 7.32136 116.718 8.15617 116.718V117.28C3.84397 117.28 1.04788 117.763 0.59758 118.124C1.04788 118.485 3.84397 118.968 8.15617 118.968C12.4588 118.968 15.252 118.487 15.7117 118.126C15.4929 117.972 14.5992 117.648 12.2021 117.441L12.2505 116.881C16.3123 117.232 16.3123 117.88 16.3123 118.124C16.3123 119.491 8.99099 119.53 8.15617 119.53Z" fill="#2F2E41"/>
<path d="M8.15617 135.28C7.32136 135.28 0 135.241 0 133.874C0 132.507 7.32136 132.468 8.15617 132.468V133.03C3.84397 133.03 1.04788 133.513 0.59758 133.874C1.04788 134.235 3.84397 134.718 8.15617 134.718C12.4588 134.718 15.252 134.237 15.7117 133.876C15.4929 133.722 14.5992 133.398 12.2021 133.191L12.2505 132.63C16.3123 132.981 16.3123 133.63 16.3123 133.874C16.3123 135.241 8.99099 135.28 8.15617 135.28Z" fill="#2F2E41"/>
<path d="M8.15617 151.03C7.32136 151.03 0 150.99 0 149.624C0 148.257 7.32136 148.217 8.15617 148.217V148.78C3.84397 148.78 1.04788 149.262 0.59758 149.624C1.04788 149.985 3.84397 150.467 8.15617 150.467C12.4588 150.467 15.252 149.987 15.7117 149.626C15.4929 149.471 14.5992 149.148 12.2021 148.94L12.2505 148.38C16.3123 148.731 16.3123 149.379 16.3123 149.624C16.3123 150.99 8.99099 151.03 8.15617 151.03Z" fill="#2F2E41"/>
<path d="M8.15617 166.78C7.32136 166.78 0 166.74 0 165.374C0 164.007 7.32136 163.967 8.15617 163.967V164.53C3.84397 164.53 1.04788 165.012 0.59758 165.374C1.04788 165.735 3.84397 166.217 8.15617 166.217C12.4588 166.217 15.252 165.737 15.7117 165.376C15.4929 165.221 14.5992 164.898 12.2021 164.69L12.2505 164.13C16.3123 164.481 16.3123 165.129 16.3123 165.374C16.3123 166.74 8.99099 166.78 8.15617 166.78Z" fill="#2F2E41"/>
<path d="M107.296 66.2337H45.4215C44.9368 66.2332 44.4721 66.0404 44.1294 65.6977C43.7867 65.355 43.5939 64.8903 43.5934 64.4056V40.2184C43.5939 39.7337 43.7867 39.269 44.1294 38.9263C44.4721 38.5836 44.9368 38.3908 45.4215 38.3903H107.296C107.781 38.3908 108.245 38.5836 108.588 38.9263C108.931 39.269 109.123 39.7337 109.124 40.2184V64.4056C109.123 64.8903 108.931 65.355 108.588 65.6977C108.245 66.0404 107.781 66.2332 107.296 66.2337V66.2337Z" fill="white"/>
<path d="M84.2336 46.687H68.4838C68.1108 46.687 67.7531 46.5388 67.4894 46.2751C67.2257 46.0114 67.0775 45.6537 67.0775 45.2807C67.0775 44.9078 67.2257 44.5501 67.4894 44.2864C67.7531 44.0227 68.1108 43.8745 68.4838 43.8745H84.2336C84.6066 43.8745 84.9642 44.0227 85.228 44.2864C85.4917 44.5501 85.6398 44.9078 85.6398 45.2807C85.6398 45.6537 85.4917 46.0114 85.228 46.2751C84.9642 46.5388 84.6066 46.687 84.2336 46.687H84.2336Z" fill="#6C63FF"/>
<path d="M92.9523 53.7182H59.7651C59.3921 53.7182 59.0344 53.5701 58.7707 53.3064C58.507 53.0426 58.3588 52.685 58.3588 52.312C58.3588 51.939 58.507 51.5814 58.7707 51.3176C59.0344 51.0539 59.3921 50.9058 59.7651 50.9058H92.9523C93.3252 50.9058 93.6829 51.0539 93.9466 51.3176C94.2103 51.5814 94.3585 51.939 94.3585 52.312C94.3585 52.685 94.2103 53.0426 93.9466 53.3064C93.6829 53.5701 93.3252 53.7182 92.9523 53.7182Z" fill="#6C63FF"/>
<path d="M92.9523 60.7495H59.7651C59.3921 60.7495 59.0344 60.6013 58.7707 60.3376C58.507 60.0739 58.3588 59.7162 58.3588 59.3432C58.3588 58.9703 58.507 58.6126 58.7707 58.3489C59.0344 58.0852 59.3921 57.937 59.7651 57.937H92.9523C93.3252 57.937 93.6829 58.0852 93.9466 58.3489C94.2103 58.6126 94.3585 58.9703 94.3585 59.3432C94.3585 59.7162 94.2103 60.0739 93.9466 60.3376C93.6829 60.6013 93.3252 60.7495 92.9523 60.7495Z" fill="#6C63FF"/>
<path d="M253.68 58.3928C254.558 58.3929 255.419 58.1448 256.163 57.6771C256.907 57.2094 257.504 56.541 257.884 55.749C258.265 54.957 258.414 54.0736 258.315 53.2005C258.215 52.3274 257.871 51.5002 257.322 50.8141C255.025 47.9429 249.995 48.3827 247.983 45.3048C246.278 42.6965 247.852 39.1147 250.123 36.9808C254.569 32.8033 261.686 31.7767 267.131 34.5275C272.576 37.2783 275.972 43.616 275.247 49.6733C274.971 51.9804 274.332 54.7805 276.122 56.2615C277.711 57.5758 280.06 56.8298 282.056 56.3122C285.016 55.566 288.103 55.4689 291.105 56.0277C294.106 56.5865 296.951 57.7879 299.445 59.5494C303.685 62.5883 306.775 67.4964 306.777 72.713C306.779 77.9297 303.226 83.1867 298.142 84.3547C293.158 85.4996 288.021 82.716 284.496 79.0119C280.97 75.3078 278.55 70.7009 275.337 66.7227C272.124 62.7446 267.678 59.2407 262.565 59.1486C259.603 59.0952 256.36 60.1377 253.846 58.5701" fill="#2F2E41"/>
<path d="M255.877 60.4699C261.343 60.4699 265.773 56.0394 265.773 50.5742C265.773 45.1089 261.343 40.6785 255.877 40.6785C250.412 40.6785 245.982 45.1089 245.982 50.5742C245.982 56.0394 250.412 60.4699 255.877 60.4699Z" fill="#FFB8B8"/>
<path d="M234.827 116.221C234.653 115.655 234.604 115.057 234.686 114.47C234.767 113.884 234.976 113.322 235.298 112.825C235.62 112.328 236.047 111.907 236.549 111.593C237.051 111.279 237.616 111.078 238.204 111.006L241.226 96.9291L246.469 102.267L242.795 114.817C242.851 115.812 242.54 116.794 241.92 117.575C241.301 118.357 240.417 118.884 239.434 119.057C238.452 119.231 237.441 119.037 236.592 118.514C235.743 117.992 235.115 117.175 234.827 116.221V116.221Z" fill="#FFB8B8"/>
<path d="M285.656 177.362L280.801 178.272L266.166 130.202L276.554 128.858L285.656 177.362Z" fill="#FFB8B8"/>
<path d="M277.072 177.537L286.435 175.78L287.541 181.675L272.283 184.538C272.138 183.764 272.147 182.969 272.309 182.198C272.471 181.427 272.783 180.696 273.228 180.046C273.673 179.395 274.241 178.839 274.901 178.409C275.56 177.978 276.298 177.682 277.072 177.537V177.537Z" fill="#2F2E41"/>
<path d="M253.842 179.95L248.903 179.95L248.165 135.434L258.678 135.435L253.842 179.95Z" fill="#FFB8B8"/>
<path d="M245.375 178.539H254.901V184.537H239.377C239.377 183.749 239.532 182.969 239.833 182.241C240.135 181.514 240.577 180.852 241.133 180.295C241.69 179.738 242.352 179.297 243.079 178.995C243.807 178.694 244.587 178.539 245.375 178.539Z" fill="#2F2E41"/>
<path d="M245.892 141.493L246.345 119.737C246.311 119.431 242.742 86.4706 241.412 78.0486C240.061 69.4904 247.044 65.1022 247.114 65.0589C247.427 64.9308 247.709 64.8224 247.991 64.7183C251.294 63.4686 254.883 63.1787 258.344 63.8819C261.804 64.5851 264.995 66.2528 267.548 68.6925C270.191 71.1316 272.102 74.2594 273.066 77.7246C274.03 81.1899 274.009 84.8552 273.005 88.309L270.542 96.8361C283.16 119.649 285.749 129.465 285.774 129.562L285.782 129.591L285.78 129.622C285.328 138.669 247.713 141.367 246.112 141.478L245.892 141.493Z" fill="#6C63FF"/>
<path d="M242.958 73.9795L234.433 107.628L249.687 109.422L242.958 73.9795Z" fill="#6C63FF"/>
<path d="M263.564 101.792C263.669 101.209 263.899 100.656 264.241 100.172C264.582 99.6879 265.025 99.2845 265.539 98.9901C266.053 98.6958 266.625 98.5177 267.216 98.4684C267.806 98.4192 268.4 98.4999 268.955 98.705L278.093 87.5786L280.306 94.7257L271.289 104.196C270.883 105.106 270.156 105.836 269.248 106.247C268.339 106.658 267.311 106.721 266.359 106.425C265.407 106.129 264.597 105.494 264.082 104.64C263.566 103.786 263.382 102.773 263.564 101.792V101.792Z" fill="#FFB8B8"/>
<path d="M275.498 101.82L267.544 96.6741L275.115 88.6585L254.589 82.4114L259.87 67.0269L266.366 67.9548L282.88 80.1873C284.98 81.7545 286.381 84.0828 286.782 86.672C287.184 89.2611 286.554 91.9044 285.027 94.034L284.992 94.0721L275.498 101.82Z" fill="#6C63FF"/>
<path d="M246.967 44.9497C251.225 47.5491 256.026 49.1309 260.995 49.572L259.516 47.8002C260.593 48.1983 261.726 48.4233 262.873 48.4668C264.019 48.4489 265.219 48.0078 265.869 47.0643C266.159 46.5952 266.332 46.063 266.371 45.513C266.411 44.963 266.318 44.4115 266.098 43.9056C265.648 42.8965 264.946 42.0195 264.061 41.3581C262.491 40.1166 260.639 39.2827 258.67 38.9306C256.7 38.5786 254.673 38.7194 252.771 39.3404C251.466 39.7303 250.298 40.4799 249.399 41.5033C248.547 42.5547 246.688 43.5002 247.125 44.7813L246.967 44.9497Z" fill="#2F2E41"/>
<path d="M319.52 184.863H196.919C196.792 184.863 196.67 184.813 196.58 184.723C196.49 184.633 196.439 184.511 196.439 184.384C196.439 184.257 196.49 184.135 196.58 184.045C196.67 183.955 196.792 183.904 196.919 183.904H319.52C319.647 183.904 319.769 183.955 319.859 184.045C319.948 184.135 319.999 184.257 319.999 184.384C319.999 184.511 319.948 184.633 319.859 184.722C319.769 184.812 319.647 184.863 319.52 184.863V184.863Z" fill="#3F3D56"/>
</g>
<defs>
<clipPath id="clip0">
<rect width="320" height="184.863" fill="white"/>
</clipPath>
</defs>
</svg>
