<svg width="320" height="257" viewBox="0 0 320 257" fill="none" xmlns="http://www.w3.org/2000/svg">
<g clip-path="url(#clip0)">
<path d="M319.994 238.565C319.944 244.209 319.531 249.844 318.756 255.435C318.729 255.631 318.7 255.827 318.672 256.024L265.817 255.728C265.662 255.533 265.509 255.336 265.361 255.136C264.868 254.475 264.405 253.796 263.981 253.093C261.94 249.705 261.006 245.74 261.942 243.004L261.959 242.961C262.161 242.362 262.479 241.809 262.896 241.333C265.03 238.93 269.346 239.331 273.262 241.27C269.75 237.425 266.952 232.573 266.74 228.242C266.532 224.018 268.74 221 271.136 218.435C271.215 218.35 271.294 218.268 271.372 218.186C271.41 218.143 271.451 218.103 271.489 218.061C273.358 216.106 275.537 214.18 278.692 214.413C282.151 214.669 285.987 217.566 288.676 220.943C291.365 224.317 293.152 228.15 294.964 231.891C296.778 235.63 298.74 239.464 301.65 242.66C297.708 237.674 294.53 232 293.356 226.483C292.182 220.965 293.215 215.666 296.728 213.067C297.795 212.302 299.029 211.804 300.328 211.615C300.479 211.59 300.633 211.569 300.79 211.551C304.042 211.181 307.925 212.306 311.229 214.995C314.868 217.955 317.39 222.344 318.646 226.51C319.901 230.677 320.034 234.688 319.994 238.565Z" fill="#F2F2F2"/>
<path d="M285.413 255.838L284.402 255.832C284.081 255.631 283.759 255.433 283.435 255.237C283.234 255.111 283.032 254.989 282.829 254.864C279.476 252.817 276.103 250.853 272.708 248.972C269.317 247.09 265.908 245.295 262.483 243.587C262.392 243.547 262.318 243.477 262.274 243.388C262.229 243.3 262.217 243.199 262.24 243.102C262.243 243.09 262.249 243.078 262.256 243.067C262.304 242.977 262.411 242.94 262.567 243.016C262.987 243.227 263.41 243.438 263.83 243.653C267.264 245.391 270.684 247.216 274.09 249.127C277.493 251.037 280.876 253.032 284.24 255.111C284.311 255.154 284.382 255.2 284.453 255.243C284.774 255.441 285.092 255.639 285.413 255.838Z" fill="white"/>
<path d="M298.445 255.91L297.82 255.907C297.679 255.71 297.54 255.512 297.399 255.315C294.087 250.671 290.776 246.027 287.466 241.383C282.044 233.779 276.625 226.176 271.207 218.573C271.175 218.532 271.151 218.485 271.136 218.435C271.09 218.267 271.214 218.168 271.372 218.185C271.439 218.195 271.503 218.219 271.56 218.255C271.617 218.291 271.666 218.339 271.702 218.396C274.742 222.66 277.781 226.922 280.819 231.183C286.212 238.748 291.604 246.312 296.995 253.876C297.338 254.356 297.681 254.839 298.024 255.319C298.165 255.516 298.306 255.713 298.445 255.91Z" fill="white"/>
<path d="M312.368 252.281C312.336 253.334 312.266 254.371 312.175 255.398C312.158 255.594 312.14 255.791 312.122 255.987L311.467 255.983C311.487 255.787 311.507 255.591 311.524 255.394C311.663 253.911 311.761 252.41 311.775 250.869C311.792 246.597 311.376 242.334 310.532 238.145C309.635 233.635 308.347 229.212 306.683 224.926C304.936 220.405 302.831 216.032 300.386 211.847C300.34 211.779 300.319 211.696 300.328 211.615C300.355 211.428 300.604 211.372 300.79 211.551C300.827 211.586 300.858 211.626 300.884 211.67C301.186 212.19 301.483 212.712 301.775 213.235C304.129 217.443 306.145 221.832 307.802 226.36C309.38 230.66 310.581 235.09 311.39 239.599C312.148 243.782 312.476 248.031 312.368 252.281Z" fill="white"/>
<path d="M216.642 246.748C216.616 249.697 216.4 252.642 215.995 255.563C215.981 255.666 215.966 255.769 215.952 255.871L188.331 255.717C188.25 255.615 188.17 255.512 188.092 255.407C187.835 255.062 187.593 254.707 187.371 254.34C186.305 252.569 185.816 250.497 186.306 249.067L186.314 249.045C186.42 248.732 186.586 248.443 186.804 248.194C187.919 246.939 190.175 247.148 192.221 248.161C190.386 246.152 188.924 243.616 188.813 241.353C188.704 239.146 189.858 237.569 191.11 236.228C191.151 236.184 191.193 236.141 191.234 236.098C191.254 236.076 191.275 236.055 191.295 236.033C192.271 235.011 193.41 234.004 195.059 234.126C196.866 234.26 198.871 235.774 200.276 237.539C201.682 239.302 202.615 241.305 203.562 243.26C204.51 245.214 205.535 247.218 207.056 248.888C204.996 246.282 203.335 243.317 202.722 240.434C202.108 237.55 202.648 234.781 204.484 233.423C205.042 233.024 205.687 232.763 206.365 232.664C206.444 232.651 206.525 232.64 206.607 232.631C208.306 232.437 210.335 233.025 212.062 234.43C213.91 236.018 215.257 238.109 215.938 240.448C216.593 242.625 216.663 244.721 216.642 246.748Z" fill="#F2F2F2"/>
<path d="M198.571 255.774L198.043 255.771C197.875 255.666 197.707 255.562 197.537 255.46C197.433 255.394 197.327 255.33 197.22 255.265C195.468 254.195 193.706 253.169 191.932 252.186C190.16 251.203 188.378 250.265 186.588 249.372C186.541 249.351 186.502 249.314 186.479 249.268C186.456 249.222 186.449 249.169 186.461 249.119C186.463 249.112 186.466 249.106 186.47 249.1C186.495 249.053 186.551 249.034 186.632 249.074C186.852 249.184 187.072 249.294 187.292 249.407C189.087 250.315 190.874 251.268 192.654 252.267C194.432 253.265 196.2 254.308 197.958 255.394C197.995 255.417 198.032 255.441 198.069 255.463C198.237 255.567 198.403 255.67 198.571 255.774Z" fill="white"/>
<path d="M205.381 255.812L205.054 255.81C204.981 255.707 204.908 255.604 204.835 255.501C203.104 253.074 201.374 250.647 199.644 248.22C196.811 244.247 193.978 240.274 191.147 236.3C191.13 236.279 191.118 236.254 191.11 236.228C191.086 236.14 191.151 236.089 191.233 236.098C191.268 236.103 191.302 236.115 191.332 236.134C191.361 236.153 191.387 236.178 191.406 236.208C192.994 238.436 194.582 240.663 196.17 242.89C198.988 246.843 201.806 250.796 204.624 254.749C204.803 255 204.982 255.252 205.161 255.503C205.235 255.606 205.308 255.709 205.381 255.812Z" fill="white"/>
<path d="M212.657 253.915C212.64 254.466 212.604 255.008 212.556 255.544C212.547 255.647 212.538 255.749 212.529 255.852L212.186 255.85C212.196 255.747 212.207 255.645 212.216 255.542C212.289 254.767 212.34 253.983 212.347 253.178C212.356 250.945 212.138 248.717 211.698 246.528C211.229 244.172 210.556 241.86 209.686 239.62C208.773 237.258 207.673 234.972 206.395 232.786C206.371 232.75 206.361 232.707 206.365 232.664C206.379 232.566 206.509 232.537 206.607 232.631C206.626 232.649 206.642 232.67 206.656 232.693C206.814 232.965 206.969 233.237 207.121 233.511C208.352 235.71 209.405 238.003 210.271 240.37C211.096 242.617 211.723 244.932 212.146 247.288C212.542 249.474 212.713 251.695 212.657 253.915Z" fill="white"/>
<path d="M57.1629 139.27H5.39837C3.96714 139.268 2.59499 138.699 1.58295 137.687C0.570912 136.675 0.00163097 135.303 0 133.872V71.693C0.00163097 70.2618 0.570912 68.8897 1.58295 67.8776C2.59499 66.8656 3.96714 66.2963 5.39837 66.2947H57.1629C58.5941 66.2963 59.9662 66.8656 60.9783 67.8776C61.9903 68.8897 62.5596 70.2618 62.5612 71.693V133.872C62.5596 135.303 61.9903 136.675 60.9783 137.687C59.9662 138.699 58.5941 139.268 57.1629 139.27V139.27ZM5.39837 66.9836C4.14978 66.985 2.95272 67.4816 2.06983 68.3645C1.18694 69.2474 0.690312 70.4444 0.688903 71.693V133.872C0.690312 135.12 1.18694 136.317 2.06983 137.2C2.95272 138.083 4.14978 138.58 5.39837 138.581H57.1629C58.4114 138.58 59.6085 138.083 60.4914 137.2C61.3743 136.317 61.8709 135.12 61.8723 133.872V71.693C61.8709 70.4444 61.3743 69.2474 60.4914 68.3645C59.6085 67.4816 58.4114 66.985 57.1628 66.9836H5.39837Z" fill="#3F3D56"/>
<path d="M43.3811 71.4058H19.1803C18.0387 71.4045 16.9443 70.9504 16.1372 70.1433C15.33 69.3361 14.8759 68.2417 14.8746 67.1001V66.178C14.8759 65.0364 15.33 63.942 16.1372 63.1348C16.9443 62.3276 18.0387 61.8736 19.1803 61.8723H43.3811C44.5226 61.8736 45.617 62.3276 46.4242 63.1348C47.2314 63.942 47.6854 65.0364 47.6867 66.178V67.1001C47.6854 68.2417 47.2314 69.3361 46.4242 70.1433C45.617 70.9504 44.5226 71.4045 43.3811 71.4058V71.4058Z" fill="#CCCCCC"/>
<path d="M55.0188 105.233H7.54253C7.22049 105.233 6.90154 105.17 6.60391 105.047C6.30628 104.924 6.03581 104.744 5.80796 104.516C5.58012 104.288 5.39936 104.018 5.27603 103.721C5.15271 103.423 5.08923 103.104 5.08923 102.782C5.08923 102.46 5.15271 102.141 5.27603 101.844C5.39936 101.546 5.58012 101.276 5.80796 101.049C6.03581 100.821 6.30628 100.641 6.60391 100.518C6.90154 100.395 7.22049 100.332 7.54253 100.332H55.0188C55.6682 100.333 56.2907 100.591 56.7496 101.051C57.2085 101.51 57.4663 102.133 57.4663 102.782C57.4663 103.432 57.2085 104.055 56.7496 104.514C56.2907 104.973 55.6682 105.232 55.0188 105.233Z" fill="#6C63FF"/>
<path d="M55.0188 115.647H7.54253C7.22049 115.647 6.90154 115.584 6.60391 115.461C6.30628 115.338 6.03581 115.158 5.80796 114.93C5.58012 114.703 5.39936 114.432 5.27603 114.135C5.15271 113.837 5.08923 113.519 5.08923 113.196C5.08923 112.874 5.15271 112.556 5.27603 112.258C5.39936 111.961 5.58012 111.69 5.80796 111.463C6.03581 111.235 6.30628 111.055 6.60391 110.932C6.90154 110.809 7.22049 110.746 7.54253 110.746H55.0188C55.6682 110.747 56.2907 111.005 56.7496 111.465C57.2085 111.924 57.4663 112.547 57.4663 113.196C57.4663 113.846 57.2085 114.469 56.7496 114.928C56.2907 115.388 55.6682 115.646 55.0188 115.647V115.647Z" fill="#6C63FF"/>
<path d="M42.3073 94.8185H20.2538C19.9318 94.8189 19.6128 94.7558 19.3152 94.6328C19.0176 94.5098 18.7471 94.3294 18.5193 94.1018C18.2914 93.8743 18.1107 93.604 17.9873 93.3065C17.864 93.009 17.8005 92.6902 17.8005 92.3681C17.8005 92.0461 17.864 91.7272 17.9873 91.4297C18.1107 91.1322 18.2914 90.862 18.5193 90.6344C18.7471 90.4068 19.0176 90.2264 19.3152 90.1034C19.6128 89.9804 19.9318 89.9173 20.2538 89.9177H42.3073C42.6294 89.9173 42.9483 89.9804 43.246 90.1034C43.5436 90.2264 43.8141 90.4068 44.0419 90.6344C44.2698 90.862 44.4505 91.1322 44.5738 91.4297C44.6972 91.7272 44.7606 92.0461 44.7606 92.3681C44.7606 92.6902 44.6972 93.009 44.5738 93.3065C44.4505 93.604 44.2698 93.8743 44.0419 94.1018C43.8141 94.3294 43.5436 94.5098 43.246 94.6328C42.9483 94.7558 42.6294 94.8189 42.3073 94.8185V94.8185Z" fill="#6C63FF"/>
<path d="M167.124 77.3977H115.36C113.928 77.3961 112.556 76.8268 111.544 75.8147C110.532 74.8027 109.963 73.4306 109.961 71.9993V9.82061C109.963 8.38937 110.532 7.01722 111.544 6.00518C112.556 4.99314 113.928 4.42386 115.36 4.42224H167.124C168.555 4.42386 169.927 4.99314 170.939 6.00518C171.951 7.01722 172.521 8.38937 172.522 9.82061V71.9993C172.521 73.4306 171.951 74.8027 170.939 75.8148C169.927 76.8268 168.555 77.3961 167.124 77.3977V77.3977ZM115.36 5.11114C114.111 5.11254 112.914 5.60917 112.031 6.49206C111.148 7.37495 110.651 8.57201 110.65 9.82061V71.9993C110.651 73.2479 111.148 74.445 112.031 75.3279C112.914 76.2108 114.111 76.7074 115.36 76.7088H167.124C168.373 76.7074 169.57 76.2108 170.453 75.3279C171.335 74.445 171.832 73.2479 171.833 71.9993V9.82061C171.832 8.57201 171.335 7.37495 170.453 6.49206C169.57 5.60917 168.373 5.11254 167.124 5.11114H115.36Z" fill="#3F3D56"/>
<path d="M153.342 9.53347H129.141C128 9.53219 126.906 9.07814 126.098 8.27096C125.291 7.46377 124.837 6.36936 124.836 5.22783V4.30564C124.837 3.16411 125.291 2.0697 126.098 1.26251C126.906 0.455326 128 0.00128366 129.141 0H153.342C154.484 0.00128366 155.578 0.455326 156.385 1.26251C157.192 2.0697 157.647 3.16411 157.648 4.30564V5.22783C157.647 6.36936 157.192 7.46377 156.385 8.27096C155.578 9.07814 154.484 9.53219 153.342 9.53347V9.53347Z" fill="#CCCCCC"/>
<path d="M164.98 43.3604H117.504C117.182 43.3608 116.863 43.2977 116.565 43.1747C116.267 43.0517 115.997 42.8713 115.769 42.6437C115.541 42.4161 115.36 42.1459 115.237 41.8484C115.114 41.5509 115.05 41.232 115.05 40.91C115.05 40.588 115.114 40.2691 115.237 39.9716C115.36 39.6741 115.541 39.4039 115.769 39.1763C115.997 38.9487 116.267 38.7683 116.565 38.6453C116.863 38.5223 117.182 38.4592 117.504 38.4596H164.98C165.302 38.4592 165.621 38.5223 165.919 38.6453C166.216 38.7683 166.487 38.9487 166.714 39.1763C166.942 39.4039 167.123 39.6741 167.246 39.9716C167.37 40.2691 167.433 40.588 167.433 40.91C167.433 41.232 167.37 41.5509 167.246 41.8484C167.123 42.1459 166.942 42.4161 166.714 42.6437C166.487 42.8713 166.216 43.0517 165.919 43.1747C165.621 43.2977 165.302 43.3608 164.98 43.3604V43.3604Z" fill="#6C63FF"/>
<path d="M164.98 53.7744H117.504C117.182 53.7744 116.863 53.7111 116.566 53.5879C116.269 53.4648 115.998 53.2843 115.771 53.0567C115.543 52.8292 115.363 52.5591 115.24 52.2618C115.117 51.9645 115.053 51.6458 115.053 51.324C115.053 51.0023 115.117 50.6836 115.24 50.3863C115.363 50.089 115.543 49.8189 115.771 49.5914C115.998 49.3638 116.269 49.1833 116.566 49.0602C116.863 48.937 117.182 48.8737 117.504 48.8737H164.98C165.302 48.8737 165.62 48.937 165.918 49.0602C166.215 49.1833 166.485 49.3638 166.713 49.5914C166.94 49.8189 167.121 50.089 167.244 50.3863C167.367 50.6836 167.43 51.0023 167.43 51.324C167.43 51.6458 167.367 51.9645 167.244 52.2618C167.121 52.5591 166.94 52.8292 166.713 53.0567C166.485 53.2843 166.215 53.4648 165.918 53.5879C165.62 53.7111 165.302 53.7744 164.98 53.7744Z" fill="#6C63FF"/>
<path d="M152.269 32.9462H130.215C129.893 32.9466 129.574 32.8835 129.276 32.7605C128.979 32.6375 128.708 32.4571 128.48 32.2295C128.253 32.0019 128.072 31.7317 127.949 31.4342C127.825 31.1367 127.762 30.8178 127.762 30.4958C127.762 30.1738 127.825 29.8549 127.949 29.5574C128.072 29.2599 128.253 28.9897 128.48 28.7621C128.708 28.5345 128.979 28.3541 129.276 28.2311C129.574 28.1081 129.893 28.045 130.215 28.0454H152.269C152.918 28.0454 153.542 28.3036 154.001 28.7631C154.461 29.2226 154.719 29.8459 154.719 30.4958C154.719 31.1457 154.461 31.7689 154.001 32.2285C153.542 32.688 152.918 32.9462 152.269 32.9462Z" fill="#6C63FF"/>
<path d="M272.733 182.161L227.28 206.932C226.023 207.616 224.545 207.772 223.173 207.368C221.8 206.964 220.643 206.031 219.957 204.775L190.202 150.178C189.519 148.921 189.362 147.443 189.767 146.07C190.171 144.697 191.103 143.541 192.359 142.855L237.812 118.084C239.07 117.4 240.547 117.244 241.92 117.648C243.293 118.052 244.449 118.985 245.136 120.241L274.89 174.838C275.573 176.095 275.73 177.573 275.326 178.946C274.921 180.318 273.989 181.475 272.733 182.161ZM192.689 143.46C191.593 144.058 190.78 145.067 190.427 146.265C190.074 147.463 190.211 148.751 190.807 149.848L220.562 204.446C221.16 205.541 222.169 206.355 223.367 206.708C224.565 207.06 225.854 206.923 226.951 206.327L272.403 181.556C273.499 180.958 274.313 179.949 274.665 178.751C275.018 177.553 274.881 176.264 274.285 175.167L244.531 120.57C243.932 119.475 242.923 118.661 241.725 118.308C240.528 117.956 239.239 118.092 238.142 118.689L192.689 143.46Z" fill="#3F3D56"/>
<path d="M228.156 129.167L206.907 140.748C205.904 141.293 204.725 141.418 203.63 141.095C202.535 140.773 201.613 140.029 201.065 139.027L200.624 138.218C200.079 137.215 199.954 136.036 200.277 134.941C200.599 133.846 201.343 132.924 202.344 132.377L223.594 120.796C224.597 120.251 225.776 120.126 226.871 120.448C227.966 120.771 228.888 121.514 229.435 122.516L229.877 123.326C230.422 124.329 230.547 125.507 230.224 126.602C229.902 127.697 229.158 128.619 228.156 129.167V129.167Z" fill="#CCCCCC"/>
<path d="M254.563 153.3L212.875 176.019C212.593 176.173 212.282 176.27 211.962 176.304C211.642 176.338 211.319 176.309 211.01 176.218C210.702 176.127 210.414 175.976 210.163 175.774C209.913 175.572 209.705 175.323 209.551 175.04C209.397 174.757 209.3 174.447 209.266 174.127C209.232 173.807 209.261 173.484 209.352 173.175C209.443 172.866 209.594 172.579 209.796 172.328C209.998 172.078 210.247 171.87 210.53 171.716L252.217 148.997C252.788 148.686 253.459 148.614 254.082 148.798C254.706 148.982 255.231 149.405 255.542 149.976C255.853 150.547 255.924 151.217 255.741 151.841C255.557 152.464 255.133 152.989 254.563 153.3V153.3Z" fill="#CCCCCC"/>
<path d="M259.546 162.445L217.859 185.163C217.576 185.317 217.266 185.414 216.946 185.448C216.626 185.483 216.302 185.453 215.994 185.362C215.685 185.271 215.397 185.121 215.147 184.919C214.896 184.716 214.688 184.467 214.534 184.184C214.38 183.902 214.284 183.592 214.249 183.272C214.215 182.952 214.245 182.628 214.335 182.32C214.426 182.011 214.577 181.723 214.779 181.473C214.981 181.222 215.231 181.014 215.513 180.86L257.201 158.141C257.483 157.987 257.794 157.89 258.114 157.856C258.434 157.822 258.757 157.851 259.066 157.942C259.374 158.033 259.662 158.184 259.913 158.386C260.163 158.588 260.371 158.838 260.525 159.12C260.679 159.403 260.776 159.713 260.81 160.033C260.844 160.353 260.815 160.677 260.724 160.985C260.633 161.294 260.482 161.582 260.28 161.832C260.078 162.082 259.829 162.291 259.546 162.445V162.445Z" fill="#CCCCCC"/>
<path d="M238.418 150.238L219.053 160.792C218.77 160.946 218.46 161.043 218.14 161.077C217.82 161.111 217.497 161.082 217.188 160.991C216.879 160.9 216.592 160.749 216.341 160.547C216.091 160.345 215.883 160.095 215.729 159.813C215.575 159.53 215.478 159.22 215.444 158.9C215.41 158.58 215.439 158.257 215.53 157.948C215.621 157.639 215.772 157.351 215.974 157.101C216.176 156.851 216.425 156.643 216.708 156.489L236.072 145.935C236.355 145.781 236.665 145.684 236.985 145.65C237.305 145.616 237.629 145.645 237.937 145.736C238.246 145.827 238.534 145.978 238.784 146.18C239.035 146.382 239.243 146.632 239.397 146.914C239.551 147.197 239.647 147.507 239.682 147.827C239.716 148.147 239.686 148.47 239.596 148.779C239.505 149.088 239.354 149.376 239.152 149.626C238.95 149.876 238.7 150.084 238.418 150.238V150.238Z" fill="#CCCCCC"/>
<path d="M96.1739 56.3091L71.9629 70.3661L72.3088 70.9618L96.5197 56.9048L96.1739 56.3091Z" fill="#3F3D56"/>
<path d="M97.2021 60.082L100.622 54.1244L93.7524 54.1406L97.2021 60.082Z" fill="#3F3D56"/>
<path d="M167.828 148.783C167.773 148.783 167.719 148.77 167.671 148.745L74.6177 100.945C74.5366 100.903 74.4755 100.83 74.4477 100.744C74.4199 100.657 74.4276 100.562 74.4693 100.481C74.511 100.4 74.5832 100.339 74.67 100.311C74.7568 100.283 74.8512 100.29 74.9325 100.332L167.986 148.132C168.054 148.167 168.109 148.225 168.141 148.295C168.174 148.365 168.181 148.445 168.163 148.52C168.145 148.595 168.102 148.662 168.041 148.709C167.98 148.757 167.905 148.783 167.828 148.783V148.783Z" fill="#3F3D56"/>
<path d="M165.365 151.035L172.226 150.698L168.504 144.924L165.365 151.035Z" fill="#3F3D56"/>
<path d="M263.841 188.305C263.357 188.064 262.931 187.72 262.594 187.297C262.257 186.874 262.017 186.382 261.891 185.856C261.765 185.33 261.756 184.782 261.864 184.252C261.972 183.722 262.195 183.222 262.518 182.788L259.751 155.735H265.73L267.929 182.151C268.623 182.741 269.077 183.565 269.204 184.466C269.331 185.368 269.123 186.285 268.619 187.044C268.115 187.803 267.35 188.35 266.47 188.583C265.589 188.815 264.654 188.717 263.841 188.305V188.305Z" fill="#A0616A"/>
<path d="M258.35 140.805C263.023 140.805 266.81 137.017 266.81 132.344C266.81 127.672 263.023 123.884 258.35 123.884C253.678 123.884 249.89 127.672 249.89 132.344C249.89 137.017 253.678 140.805 258.35 140.805Z" fill="#A0616A"/>
<path d="M256.425 171.454L243.799 168.696C243.467 168.623 243.168 168.443 242.948 168.184C242.729 167.925 242.6 167.601 242.582 167.262C242.436 164.444 242.331 157.155 244.501 150.351C244.921 149.047 245.597 147.839 246.491 146.801C247.385 145.762 248.478 144.914 249.706 144.305C250.933 143.697 252.271 143.34 253.638 143.258C255.006 143.175 256.377 143.367 257.669 143.824V143.824C259.032 144.303 260.279 145.065 261.327 146.059C262.375 147.054 263.201 148.259 263.751 149.596C264.301 150.932 264.562 152.37 264.517 153.814C264.472 155.259 264.122 156.678 263.49 157.977C260.69 163.727 258.927 167.891 258.249 170.353C258.144 170.735 257.896 171.062 257.557 171.267C257.217 171.472 256.812 171.539 256.425 171.454Z" fill="#6C63FF"/>
<path d="M244.531 251.826L240.308 251.825L238.299 235.537L244.531 235.537L244.531 251.826Z" fill="#A0616A"/>
<path d="M237.291 250.619H245.435V255.747H232.163C232.163 254.387 232.704 253.082 233.665 252.121C234.627 251.159 235.931 250.619 237.291 250.619V250.619Z" fill="#2F2E41"/>
<path d="M286.757 246.353L283.057 248.387L273.448 235.082L278.91 232.079L286.757 246.353Z" fill="#A0616A"/>
<path d="M279.832 248.783L286.969 244.859L289.439 249.353L277.809 255.747C277.154 254.555 276.999 253.152 277.378 251.846C277.758 250.54 278.64 249.438 279.832 248.783V248.783Z" fill="#2F2E41"/>
<path d="M244.607 242.78L238.106 242.28C237.743 242.253 237.4 242.098 237.14 241.842C236.879 241.587 236.717 241.248 236.682 240.885C235.756 231.221 231.691 182.25 242.685 167.172L242.716 167.13L242.765 167.112C242.863 167.076 252.668 163.58 258.294 169.987C258.47 170.191 258.59 170.437 258.643 170.701C258.695 170.966 258.678 171.239 258.592 171.495L258.377 172.138C258.316 172.321 258.299 172.516 258.329 172.706C258.359 172.896 258.434 173.076 258.548 173.231C260.109 175.342 265.363 183.47 267.429 199.454C267.442 199.556 267.468 199.655 267.506 199.75L282.753 237.205C282.831 237.396 282.87 237.601 282.868 237.808C282.865 238.014 282.821 238.218 282.739 238.408C282.657 238.597 282.537 238.768 282.388 238.91C282.239 239.053 282.062 239.164 281.869 239.238L277.072 241.066C276.723 241.197 276.338 241.198 275.987 241.07C275.637 240.941 275.344 240.691 275.163 240.365L253.153 200.433C253.065 200.274 252.929 200.146 252.765 200.069C252.601 199.992 252.416 199.969 252.238 200.002C252.06 200.036 251.897 200.126 251.772 200.258C251.648 200.39 251.568 200.558 251.545 200.738L246.263 241.434C246.215 241.807 246.033 242.15 245.75 242.399C245.467 242.647 245.104 242.784 244.728 242.785C244.688 242.785 244.648 242.783 244.607 242.78Z" fill="#2F2E41"/>
<path d="M225.461 142.172C225.503 142.358 225.531 142.547 225.543 142.737L240.34 151.273L243.937 149.202L247.771 154.222L241.76 158.506C241.274 158.852 240.69 159.031 240.093 159.017C239.497 159.002 238.922 158.795 238.454 158.425L223.196 146.388C222.507 146.643 221.757 146.682 221.046 146.501C220.334 146.319 219.695 145.925 219.213 145.371C218.731 144.817 218.429 144.13 218.347 143.4C218.266 142.671 218.408 141.933 218.755 141.286C219.103 140.64 219.639 140.114 220.292 139.779C220.946 139.444 221.686 139.317 222.414 139.413C223.142 139.509 223.823 139.824 224.368 140.317C224.912 140.81 225.293 141.457 225.461 142.172V142.172Z" fill="#A0616A"/>
<path d="M240.543 150.42C240.588 150.201 240.679 149.995 240.81 149.816C240.942 149.636 241.111 149.486 241.305 149.378L248.095 145.581C248.997 144.885 250.139 144.575 251.269 144.719C252.4 144.863 253.427 145.449 254.126 146.349C254.824 147.249 255.138 148.39 254.997 149.521C254.856 150.652 254.273 151.68 253.374 152.382L247.961 158.004C247.806 158.164 247.619 158.289 247.411 158.371C247.204 158.452 246.982 158.488 246.759 158.476C246.537 158.464 246.32 158.404 246.123 158.3C245.925 158.197 245.753 158.052 245.617 157.875L240.835 151.677C240.698 151.501 240.602 151.297 240.552 151.08C240.501 150.863 240.499 150.638 240.543 150.42V150.42Z" fill="#6C63FF"/>
<path d="M258.12 162.125C257.946 161.985 257.805 161.809 257.706 161.61C257.607 161.41 257.552 161.192 257.545 160.969L257.302 153.193C257.099 152.072 257.349 150.916 257.998 149.979C258.646 149.042 259.64 148.4 260.761 148.194C261.881 147.988 263.038 148.235 263.977 148.881C264.916 149.527 265.561 150.518 265.77 151.639L268.267 159.033C268.338 159.244 268.363 159.468 268.34 159.69C268.317 159.911 268.247 160.125 268.133 160.317C268.02 160.509 267.867 160.674 267.684 160.801C267.501 160.928 267.293 161.015 267.074 161.054L259.37 162.446C259.151 162.485 258.926 162.477 258.71 162.422C258.494 162.367 258.293 162.265 258.12 162.125V162.125Z" fill="#6C63FF"/>
<path d="M257.011 130.399C254.837 131.887 251.982 133.417 249.761 131.832C248.303 130.791 247.843 128.864 248.435 127.173C249.498 124.132 252.42 122.793 255.214 121.767C258.846 120.433 262.801 119.372 266.55 120.327C270.299 121.283 273.613 124.913 272.936 128.722C272.392 131.786 269.502 134.335 269.912 137.42C270.325 140.524 273.816 142.158 276.898 142.713C279.98 143.268 283.429 143.446 285.644 145.66C288.47 148.484 287.764 153.531 285.105 156.513C282.447 159.495 278.435 160.846 274.547 161.765C269.396 162.982 263.824 163.622 258.932 161.602C254.04 159.582 250.233 154.143 251.65 149.043C252.249 146.889 253.659 145.069 255.022 143.296C256.384 141.524 257.764 139.671 258.284 137.496C258.718 135.684 258.397 133.58 257.195 132.221C256.977 131.983 256.839 131.682 256.802 131.361C256.766 131.04 256.831 130.716 256.99 130.434L257.011 130.399Z" fill="#2F2E41"/>
<path d="M319.069 256.1H187.833C187.742 256.1 187.654 256.063 187.59 255.999C187.525 255.934 187.489 255.847 187.489 255.755C187.489 255.664 187.525 255.576 187.59 255.512C187.654 255.447 187.742 255.411 187.833 255.411H319.069C319.161 255.411 319.248 255.447 319.313 255.512C319.377 255.576 319.414 255.664 319.414 255.755C319.414 255.847 319.377 255.934 319.313 255.999C319.248 256.063 319.161 256.1 319.069 256.1Z" fill="#3F3D56"/>
</g>
<defs>
<clipPath id="clip0">
<rect width="320" height="256.1" fill="white"/>
</clipPath>
</defs>
</svg>
