<svg width="604" height="480" viewBox="0 0 604 480" fill="none" xmlns="http://www.w3.org/2000/svg">
<g clip-path="url(#clip0)">
<path opacity="0.1" d="M354.091 81.1176C315.888 79.7894 279.496 67.4583 244.752 53.9643C210.007 40.4702 175.593 25.5182 138.305 18.3698C114.321 13.7714 86.8906 13.1221 67.5705 25.9786C48.9704 38.3747 42.9613 59.7137 39.7324 79.5356C37.3004 94.4463 35.8719 110.136 42.5363 124.097C47.1582 133.789 55.3692 141.935 61.0419 151.25C80.7988 183.551 66.8385 223.383 45.4287 254.923C35.3938 269.721 23.7355 283.847 15.9909 299.584C8.24634 315.321 4.65738 333.378 11.4339 349.446C18.1573 365.383 34.1719 377.331 51.5146 385.743C86.749 402.831 128.252 407.719 168.752 410.487C258.376 416.621 348.472 413.964 438.331 411.308C471.588 410.322 504.987 409.325 537.701 404.183C555.87 401.326 574.623 396.799 587.816 385.855C604.557 371.965 608.707 348.442 597.491 331.029C578.667 301.815 526.656 294.56 513.481 263.204C506.244 245.95 513.682 226.73 524.201 210.722C546.773 176.39 584.605 146.268 586.6 107.025C587.97 80.0669 569.777 53.0788 541.656 40.3227C512.183 26.9054 471.299 28.6054 449.565 50.7354C427.169 73.5383 387.82 82.2864 354.091 81.1176Z" fill="#0BCEB2"/>
<path d="M257.042 407.595L54.9973 406.609L34.9215 359.522L105.91 354.369L93.5373 302.742L233.944 284.543L99.4933 237.804L111.37 234.983L327.564 270.252L315.657 350.821L298.639 395.099L257.042 407.595Z" fill="#0BCEB2"/>
<path d="M58.0963 386.888C58.0963 386.888 70.4924 384.904 77.9301 393.664C77.9301 393.664 72.4758 397.962 60.7408 392.011L58.0963 386.888Z" fill="#0BCEB2"/>
<path d="M56.7977 386.693C56.7977 386.693 48.8878 396.427 52.7837 407.264C52.7837 407.264 59.2297 404.685 59.9321 391.545L56.7977 386.693Z" fill="#0BCEB2"/>
<path d="M49.6906 370.69C49.6906 370.69 54.649 361.594 74.4827 374.326C74.4827 374.326 71.8383 380.442 63.0784 379.946C54.3185 379.45 52.0045 375.483 49.6906 370.69Z" fill="#0BCEB2"/>
<path d="M48.4097 370.035C48.4097 370.035 38.1209 368.854 37.1233 392.407C37.1233 392.407 43.646 393.759 48.2798 386.309C52.9136 378.86 51.0128 374.681 48.4097 370.035Z" fill="#0BCEB2"/>
<path d="M42.4182 351.246C42.4182 351.246 48.2031 335.214 69.1938 346.618C69.1938 346.618 64.4006 361.328 44.5669 356.7L42.4182 351.246Z" fill="#0BCEB2"/>
<path d="M35.9723 327.28C35.9723 327.28 46.8808 311.083 66.2187 326.1C66.2187 326.1 59.4422 341.306 37.6251 333.042L35.9723 327.28Z" fill="#0BCEB2"/>
<path d="M33.6583 304.471C33.6583 304.471 46.385 289.59 65.534 304.471C65.534 304.471 53.4685 317.529 33.6583 308.273V304.471Z" fill="#0BCEB2"/>
<path d="M31.675 282.318C31.675 282.318 44.5669 266.781 62.9131 281.491C62.9131 281.491 48.3684 295.21 31.675 285.954V282.318Z" fill="#0BCEB2"/>
<path d="M32.8319 262.649C32.8319 262.649 46.4086 242.65 63.5742 256.203C63.5742 256.203 49.0295 273.393 32.8319 266.451V262.649Z" fill="#0BCEB2"/>
<path d="M35.9723 239.675C35.9723 239.675 50.3517 219.842 67.0451 235.047C67.0451 235.047 50.0212 252.237 35.9723 243.312V239.675Z" fill="#0BCEB2"/>
<path d="M40.7654 219.139C40.7654 219.139 57.7894 200.498 72.6411 207.924C72.6411 207.924 54.9029 227.722 40.0217 224.086L40.7654 219.139Z" fill="#0BCEB2"/>
<path d="M46.7155 199.671C46.7155 199.671 66.3604 176.839 77.7884 184.466C77.7884 184.466 63.3145 202.174 45.3224 203.945L46.7155 199.671Z" fill="#0BCEB2"/>
<path d="M55.3043 177.093C55.3043 177.093 72.4994 158.452 85.0608 163.079C85.0608 163.079 70.3507 182.417 52.9962 182.913L55.3043 177.093Z" fill="#0BCEB2"/>
<path d="M63.0784 155.972C63.0784 155.972 82.0857 138.122 90.3497 141.262C90.3497 141.262 76.6314 161.096 62.252 159.939L63.0784 155.972Z" fill="#0BCEB2"/>
<path d="M70.6813 136.469C70.6813 136.469 87.0441 115.142 95.9752 116.795C95.9752 116.795 86.0524 135.808 70.6813 138.635V136.469Z" fill="#0BCEB2"/>
<path d="M78.9335 110.172C78.9335 110.172 93.3956 93.8266 101.211 93.862C101.211 93.862 89.7949 115.703 78.3373 115.502L78.9335 110.172Z" fill="#0BCEB2"/>
<path d="M83.8211 92.6636L97.7933 58.6157C97.7933 58.6157 98.4899 89.3934 82.0444 98.9797L83.8211 92.6636Z" fill="#0BCEB2"/>
<path d="M89.4938 55.1154C89.4938 55.1154 91.8078 26.6811 90.3202 24.3672C90.3202 24.3672 100.308 48.0083 89.3994 67.6768L89.4938 55.1154Z" fill="#0BCEB2"/>
<path d="M41.8752 350.868C41.8752 350.868 27.3894 341.89 18.0097 363.855C18.0097 363.855 30.9017 372.414 43.5811 356.47L41.8752 350.868Z" fill="#0BCEB2"/>
<path d="M35.5059 326.365C35.5059 326.365 17.7382 318.261 9.11996 341.193C9.11996 341.193 22.8442 350.638 37.1233 332.162L35.5059 326.365Z" fill="#0BCEB2"/>
<path d="M32.8319 305.835C32.8319 305.835 20.1053 290.954 0.956268 305.835C0.956268 305.835 13.0218 318.892 32.8319 309.637V305.835Z" fill="#0BCEB2"/>
<path d="M31.2381 282.318C31.2381 282.318 18.3462 266.781 0 281.491C0 281.491 14.5447 295.21 31.2381 285.954V282.318Z" fill="#0BCEB2"/>
<path d="M32.8319 263.216C32.8319 263.216 23.7887 240.815 4.13202 250.448C4.13202 250.448 14.7572 270.311 32.0291 266.935L32.8319 263.216Z" fill="#0BCEB2"/>
<path d="M37.1115 239.563C37.1115 239.563 28.1214 216.772 8.18732 227.338C8.18732 227.338 20.3945 248.229 36.2261 243.081L37.1115 239.563Z" fill="#0BCEB2"/>
<path d="M42.6839 219.251C42.6839 219.251 39.1421 194.264 22.614 192.027C22.614 192.027 26.1203 218.378 40.4585 223.755L42.6839 219.251Z" fill="#0BCEB2"/>
<path d="M47.1346 199.719C47.1346 199.719 45.7534 169.614 32.0882 168.563C32.0882 168.563 32.5486 191.413 45.594 203.98L47.1346 199.719Z" fill="#0BCEB2"/>
<path d="M56.7209 176.249C56.7209 176.249 52.6479 151.215 39.6025 148.157C39.6025 148.157 41.2199 172.4 55.4282 182.394L56.7209 176.249Z" fill="#0BCEB2"/>
<path d="M64.6249 156.179C64.6249 156.179 64.4892 130.1 56.5202 126.269C56.5202 126.269 51.5795 149.88 62.3169 159.508L64.6249 156.179Z" fill="#0BCEB2"/>
<path d="M71.2893 136.174C71.2893 136.174 70.1737 109.322 61.9214 105.538C61.9214 105.538 59.0998 126.788 70.0556 137.933L71.2893 136.174Z" fill="#0BCEB2"/>
<path d="M80.0846 112.314C80.0846 112.314 80.0374 90.4737 74.1463 85.35C74.1463 85.35 68.2906 109.274 77.0092 116.706L80.0846 112.314Z" fill="#0BCEB2"/>
<path d="M83.1305 91.5893L77.3988 55.2393C77.3988 55.2393 69.6129 85.0253 83.402 98.1533L83.1305 91.5893Z" fill="#0BCEB2"/>
<path d="M84.2461 55.4578C84.2461 55.4578 69.5361 31.0198 69.8372 28.3044C69.8372 28.3044 71.4014 53.9171 89.907 66.6733L84.2461 55.4578Z" fill="#0BCEB2"/>
<path d="M85.9698 48.2384C85.9698 48.2384 72.0862 13.5294 65.8055 10.7196C65.8055 10.7196 85.6392 20.8018 87.1268 47.2467L85.9698 48.2384Z" fill="#0BCEB2"/>
<path d="M78.2665 115.709L77.3161 115.419C89.0334 77.2099 91.9553 52.8487 85.5507 46.7392L86.2295 46.019C93.0238 52.465 90.2671 76.5606 78.2665 115.709Z" fill="#444053"/>
<path d="M46.0013 205.173L44.5964 204.671C45.8419 201.171 47.1819 197.617 48.5867 194.117C60.8175 163.634 71.2303 135.277 77.9064 113.507L79.1283 112.917C72.4404 134.728 62.2106 164.171 49.968 194.695C48.569 198.131 47.235 201.667 46.0013 205.173Z" fill="#444053"/>
<path d="M75.563 415.481C75.3741 415.275 56.3845 393.889 43.1443 357.379C35.3863 336.004 31.0688 313.534 30.3527 290.806C29.4437 262.396 35.4056 230.673 45.6176 201.855L46.7273 203.154C23.8005 267.832 32.9087 323.254 44.9919 356.629C58.0904 392.808 76.8675 413.958 77.0505 414.171L75.563 415.481Z" fill="#444053"/>
<path d="M372.313 370.076C372.313 370.076 358.932 386.41 369.557 411.101L262.714 457.439L252.461 459.588L247.739 438.928L250.897 412.855V398.605L372.313 370.076Z" fill="#D5D6DB"/>
<path d="M34.9215 359.522L182.801 332.563L378.748 363.778L257.042 407.595L34.9215 359.522Z" fill="#0BCEB2"/>
<path d="M34.9215 359.522L182.801 332.563L378.748 363.778L257.042 407.595L34.9215 359.522Z" fill="#0BCEB2"/>
<path d="M34.9215 359.516C34.9215 359.516 21.091 385.719 37.0289 409.921L256.322 457.439C256.322 457.439 242.709 436.566 257.024 407.595L34.9215 359.516Z" fill="#0BCEB2"/>
<path opacity="0.1" d="M34.9215 359.516C34.9215 359.516 21.091 385.719 37.0289 409.921L256.322 457.439C256.322 457.439 242.709 436.566 257.024 407.595L34.9215 359.516Z" fill="black"/>
<path opacity="0.1" d="M41.4561 368.601C41.4561 368.601 33.5521 387.773 41.4561 400.181V368.601Z" fill="black"/>
<path d="M256.322 457.439L378.748 405.198C378.748 405.198 385.595 406.674 381.168 411.692C376.741 416.709 258.683 462.457 258.683 462.457L37.0289 409.921L256.322 457.439Z" fill="#0BCEB2"/>
<path opacity="0.1" d="M256.322 457.439L378.748 405.198C378.748 405.198 385.595 406.674 381.168 411.692C376.741 416.709 258.683 462.457 258.683 462.457L37.0289 409.921L256.322 457.439Z" fill="black"/>
<path opacity="0.1" d="M246.287 412.872C246.287 412.872 234.481 427.039 246.287 448.29V412.872Z" fill="black"/>
<path opacity="0.1" d="M303.443 412.633L250.488 430.3L250.675 430.86L303.63 413.193L303.443 412.633Z" fill="black"/>
<path opacity="0.1" d="M314.049 410.875L250.472 435.051L250.681 435.603L314.259 411.426L314.049 410.875Z" fill="black"/>
<path opacity="0.1" d="M323.79 410.79L250.826 440.655L251.05 441.201L324.014 411.336L323.79 410.79Z" fill="black"/>
<path opacity="0.1" d="M334.382 408.232L251.678 445.592L251.921 446.13L334.625 408.77L334.382 408.232Z" fill="black"/>
<path opacity="0.1" d="M343.281 408.245L252.333 447.998L252.569 448.539L343.518 408.786L343.281 408.245Z" fill="black"/>
<path opacity="0.1" d="M362.746 404.939L253.704 452.035L253.938 452.577L362.98 405.481L362.746 404.939Z" fill="black"/>
<path opacity="0.3" d="M89.8598 362.402L193.751 340.562L257.042 352.663L171.91 380.111L89.8598 362.402Z" fill="white"/>
<path d="M378.748 363.778C378.748 363.778 384.119 365.944 380.967 369.291C377.815 372.638 257.024 407.595 257.024 407.595L378.748 363.778Z" fill="#0BCEB2"/>
<path d="M430.923 313.302C430.923 313.302 417.547 329.63 428.173 354.327L321.33 400.665L311.077 402.826L306.354 382.165L309.56 356.098V341.831L430.923 313.302Z" fill="#D5D6DB"/>
<path d="M93.5373 302.742L241.411 275.789L437.363 307.004L315.657 350.821L93.5373 302.742Z" fill="#00474F"/>
<path d="M93.5137 302.742C93.5137 302.742 79.6773 328.945 95.6151 353.147L314.908 400.665C314.908 400.665 301.302 379.775 315.634 350.815L93.5137 302.742Z" fill="#00474F"/>
<path opacity="0.1" d="M93.5137 302.742C93.5137 302.742 79.6773 328.945 95.6151 353.147L314.908 400.665C314.908 400.665 301.302 379.775 315.634 350.815L246.287 335.804L93.5137 302.742Z" fill="black"/>
<path opacity="0.1" d="M100.066 311.826C100.066 311.826 92.1678 330.993 100.066 343.407V311.826Z" fill="black"/>
<path d="M314.931 400.665L437.363 348.424C437.363 348.424 444.205 349.9 439.778 354.918C435.351 359.935 317.293 405.683 317.293 405.683L95.6387 353.147L314.931 400.665Z" fill="#00474F"/>
<path opacity="0.1" d="M314.931 400.665L437.363 348.424C437.363 348.424 444.205 349.9 439.778 354.918C435.351 359.935 317.293 405.683 317.293 405.683L95.6387 353.147L314.931 400.665Z" fill="black"/>
<path opacity="0.1" d="M304.896 356.098C304.896 356.098 293.091 370.265 304.896 391.516V356.098Z" fill="black"/>
<path opacity="0.1" d="M362.057 355.865L309.103 373.532L309.29 374.092L362.244 356.425L362.057 355.865Z" fill="black"/>
<path opacity="0.1" d="M372.671 354.104L309.093 378.28L309.303 378.832L372.881 354.656L372.671 354.104Z" fill="black"/>
<path opacity="0.1" d="M382.403 354.011L309.44 383.876L309.663 384.423L382.627 354.557L382.403 354.011Z" fill="black"/>
<path opacity="0.1" d="M393.002 351.455L310.298 388.815L310.541 389.353L393.245 351.993L393.002 351.455Z" fill="black"/>
<path opacity="0.1" d="M401.893 351.46L310.944 391.213L311.181 391.754L402.129 352.001L401.893 351.46Z" fill="black"/>
<path opacity="0.1" d="M421.362 348.154L312.32 395.25L312.554 395.792L421.596 348.696L421.362 348.154Z" fill="black"/>
<path opacity="0.45" d="M148.476 305.628L252.367 283.788L315.657 295.889L230.526 323.337L148.476 305.628Z" fill="white"/>
<path d="M437.363 307.004C437.363 307.004 442.729 309.17 439.583 312.511C436.437 315.852 315.657 350.815 315.657 350.815L437.363 307.004Z" fill="#00474F"/>
<path d="M436.472 248.353C436.472 248.353 423.09 277.672 433.715 302.364L326.873 335.716L316.643 337.882L311.921 317.222L315.079 291.149V276.881L436.472 248.353Z" fill="#D5D6DB"/>
<path d="M99.1037 237.798L246.983 210.84L442.936 242.054L321.224 285.871L99.1037 237.798Z" fill="#0BCEB2"/>
<path d="M99.1038 237.792C99.1038 237.792 85.2497 263.995 101.187 288.197L320.48 335.716C320.48 335.716 306.868 314.825 321.2 285.871L99.1038 237.792Z" fill="#0BCEB2"/>
<path opacity="0.1" d="M99.1038 237.792C99.1038 237.792 85.2497 263.995 101.187 288.197L320.48 335.716C320.48 335.716 306.868 314.825 321.2 285.871L99.1038 237.792Z" fill="black"/>
<path opacity="0.1" d="M105.638 246.877C105.638 246.877 97.7343 266.049 105.638 278.457V246.877Z" fill="black"/>
<path d="M320.504 335.715L442.93 296.461C442.93 296.461 449.777 297.937 445.35 302.954C440.923 307.972 322.865 340.733 322.865 340.733L101.211 288.197L320.504 335.715Z" fill="#0BCEB2"/>
<path opacity="0.1" d="M320.504 335.715L442.93 296.461C442.93 296.461 449.777 297.937 445.35 302.954C440.923 307.972 322.865 340.733 322.865 340.733L101.211 288.197L320.504 335.715Z" fill="black"/>
<path opacity="0.1" d="M310.469 291.149C310.469 291.149 298.663 305.316 310.469 326.566V291.149Z" fill="black"/>
<path opacity="0.1" d="M367.631 290.914L314.677 308.581L314.864 309.141L367.818 291.474L367.631 290.914Z" fill="black"/>
<path opacity="0.1" d="M378.241 289.156L314.663 313.333L314.873 313.884L378.451 289.708L378.241 289.156Z" fill="black"/>
<path opacity="0.1" d="M387.968 289.066L315.004 318.931L315.228 319.478L388.191 289.613L387.968 289.066Z" fill="black"/>
<path opacity="0.1" d="M398.575 286.505L315.871 323.865L316.114 324.402L398.818 287.043L398.575 286.505Z" fill="black"/>
<path opacity="0.1" d="M407.469 286.515L316.52 326.269L316.757 326.809L407.705 287.056L407.469 286.515Z" fill="black"/>
<path opacity="0.1" d="M426.936 283.213L317.894 330.31L318.128 330.852L427.17 283.755L426.936 283.213Z" fill="black"/>
<path opacity="0.3" d="M154.042 240.679L257.933 218.838L321.224 230.939L236.092 258.388L154.042 240.679Z" fill="white"/>
<path d="M442.93 242.054C442.93 242.054 448.301 244.221 445.149 247.567C441.997 250.914 321.224 285.871 321.224 285.871L442.93 242.054Z" fill="#0BCEB2"/>
<path d="M183.238 62.8658C183.238 62.8658 160.807 61.5141 163.428 77.2512C163.428 77.2512 162.902 80.0315 165.423 81.2947C165.423 81.2947 165.464 80.1141 167.725 80.5214C168.532 80.66 169.352 80.6996 170.169 80.6395C171.269 80.5641 172.315 80.1332 173.15 79.4117C173.15 79.4117 179.46 76.8026 181.916 66.4843C181.916 66.4843 183.734 64.2353 183.686 63.6568L179.885 65.2742C179.885 65.2742 181.178 68.0073 180.162 70.2799C180.162 70.2799 180.038 65.3746 179.306 65.4867C179.159 65.4867 177.341 66.4371 177.341 66.4371C177.341 66.4371 179.566 71.2007 177.884 74.6598C177.884 74.6598 178.521 68.7924 176.644 66.7795L173.976 68.3378C173.976 68.3378 176.579 73.2549 174.814 77.2689C174.814 77.2689 175.269 71.1122 173.415 68.7156L170.995 70.6045C170.995 70.6045 173.445 75.4508 171.951 78.7801C171.951 78.7801 171.757 71.6139 170.476 71.0709C170.476 71.0709 168.357 72.9362 168.038 73.7036C168.038 73.7036 169.714 77.2453 168.669 79.0811C168.669 79.0811 168.038 74.3057 167.489 74.282C167.489 74.282 165.381 77.446 165.163 79.5947C165.265 77.5915 165.89 75.65 166.975 73.9633C165.761 74.1931 164.64 74.7739 163.752 75.6338C163.752 75.6338 164.077 73.3966 167.501 73.2018C167.501 73.2018 169.242 70.7993 169.708 70.6577C169.708 70.6577 166.302 70.3684 164.242 71.2834C164.242 71.2834 166.06 69.176 170.328 70.1028L172.689 68.1548C172.689 68.1548 168.215 67.5646 166.314 68.2198C166.314 68.2198 168.504 66.3545 173.333 67.7121L175.936 66.1597C175.936 66.1597 172.117 65.3392 169.844 65.6343C169.844 65.6343 172.241 64.3416 176.697 65.7406L178.551 64.9083C178.551 64.9083 175.759 64.3593 174.938 64.2707C174.118 64.1822 174.076 63.9579 174.076 63.9579C175.849 63.6668 177.667 63.8711 179.33 64.5482C179.33 64.5482 183.315 63.1138 183.238 62.8658Z" fill="#0BCEB2"/>
<path opacity="0.1" d="M498.807 127.55C498.807 127.55 476.376 126.198 478.997 141.935C478.997 141.935 478.471 144.715 480.992 145.979C480.992 145.979 481.033 144.798 483.294 145.205C484.101 145.341 484.921 145.38 485.738 145.323C486.828 145.243 487.863 144.812 488.689 144.096C488.689 144.096 495.005 141.487 497.455 131.168C497.455 131.168 499.273 128.919 499.226 128.341L495.436 129.958C495.436 129.958 496.729 132.691 495.713 134.964C495.713 134.964 495.59 130.059 494.863 130.171C494.716 130.171 492.892 131.121 492.892 131.121C492.892 131.121 495.117 135.885 493.441 139.344C493.441 139.344 494.078 133.476 492.195 131.463L489.527 133.022C489.527 133.022 492.13 137.939 490.365 141.953C490.365 141.953 490.82 135.796 488.966 133.4L486.552 135.289C486.552 135.289 488.996 140.135 487.503 143.464C487.503 143.464 487.308 136.298 486.027 135.755C486.027 135.755 483.914 137.62 483.589 138.388C483.589 138.388 485.265 141.929 484.226 143.765C484.226 143.765 483.589 138.99 483.046 138.966C483.046 138.966 480.939 142.13 480.72 144.279C480.822 142.275 481.449 140.333 482.538 138.647C481.322 138.878 480.2 139.458 479.309 140.318C479.309 140.318 479.64 138.081 483.058 137.886C483.058 137.886 484.799 135.483 485.265 135.336C485.265 135.336 481.865 135.052 479.799 135.967C479.799 135.967 481.617 133.86 485.885 134.787L488.246 132.839C488.246 132.839 483.766 132.249 481.871 132.904C481.871 132.904 484.055 131.038 488.89 132.396L491.487 130.844C491.487 130.844 487.668 130.023 485.395 130.318C485.395 130.318 487.792 129.026 492.249 130.425L494.108 129.592C494.108 129.592 491.31 129.043 490.489 128.955C489.669 128.866 489.628 128.642 489.628 128.642C491.4 128.347 493.219 128.551 494.881 129.232C494.881 129.232 498.877 127.798 498.807 127.55Z" fill="#0BCEB2"/>
<path opacity="0.1" d="M221.016 160.087C221.016 160.087 211.241 139.822 198.798 149.81C198.798 149.81 196.112 150.707 196.242 153.523C196.242 153.523 197.275 152.985 198.013 155.158C198.288 155.926 198.653 156.659 199.099 157.342C199.703 158.268 200.592 158.972 201.631 159.349C201.631 159.349 206.985 163.587 217.191 160.695C217.191 160.695 220.042 161.185 220.509 160.842L217.25 158.322C217.25 158.322 215.479 160.783 213.012 161.002C213.012 161.002 217.238 158.505 216.784 157.926C216.689 157.808 215.013 156.669 215.013 156.669C215.013 156.669 211.938 160.937 208.101 161.155C208.101 161.155 213.531 158.853 214.37 156.226L211.713 154.656C211.713 154.656 208.685 159.331 204.323 159.744C204.323 159.744 209.919 157.141 211.105 154.355L208.284 153.174C208.284 153.174 205.244 157.672 201.608 157.997C201.608 157.997 207.77 154.331 207.617 152.944C207.617 152.944 204.955 152.011 204.128 152.1C204.128 152.1 201.873 155.282 199.748 155.282C199.748 155.282 203.603 152.395 203.367 151.929C203.367 151.929 199.577 151.634 197.582 152.519C199.38 151.625 201.38 151.218 203.384 151.338C202.589 150.39 201.535 149.695 200.35 149.337C200.35 149.337 202.463 148.535 204.299 151.421C204.299 151.421 207.251 151.769 207.599 152.106C207.599 152.106 206.188 149.001 204.388 147.649C204.388 147.649 207.115 148.198 208.36 152.371L211.223 153.505C211.223 153.505 209.576 149.302 208.059 147.974C208.059 147.974 210.751 148.971 211.926 153.877L214.547 155.388C214.547 155.388 213.407 151.651 212.038 149.816C212.038 149.816 214.334 151.279 215.285 155.848L216.92 157.064C216.92 157.064 216.034 154.355 215.739 153.599C215.444 152.844 215.592 152.69 215.592 152.69C216.714 154.092 217.426 155.778 217.646 157.56C217.646 157.56 220.804 160.264 221.016 160.087Z" fill="#0BCEB2"/>
<path opacity="0.1" d="M447.558 98.9208C447.558 98.9208 437.788 78.6562 425.339 88.6439C425.339 88.6439 422.659 89.5411 422.783 92.3568C422.783 92.3568 423.822 91.8255 424.554 93.9919C424.829 94.7629 425.196 95.4982 425.646 96.1819C426.248 97.1062 427.135 97.8088 428.173 98.183C428.173 98.183 433.532 102.421 443.733 99.5347C443.733 99.5347 446.584 100.019 447.056 99.6764L443.815 97.1499C443.815 97.1499 442.044 99.6174 439.583 99.8358C439.583 99.8358 443.803 97.3329 443.349 96.7545C443.255 96.6364 441.578 95.4971 441.578 95.4971C441.578 95.4971 438.509 99.7649 434.666 99.9833C434.666 99.9833 440.102 97.6812 440.941 95.0603L438.243 93.502C438.243 93.502 435.221 98.1712 430.853 98.5903C430.853 98.5903 436.448 95.9812 437.641 93.195L434.813 92.0144C434.813 92.0144 431.773 96.5183 428.143 96.8371C428.143 96.8371 434.3 93.1714 434.146 91.7901C434.146 91.7901 431.49 90.8516 430.664 90.946C430.664 90.946 428.409 94.1218 426.278 94.1218C426.278 94.1218 430.138 91.2352 429.902 90.7689C429.902 90.7689 426.112 90.4738 424.111 91.3592C425.909 90.4654 427.91 90.0583 429.914 90.1786C429.122 89.2299 428.069 88.5342 426.886 88.1775C426.886 88.1775 428.999 87.3747 430.835 90.2613C430.835 90.2613 433.786 90.6154 434.135 90.9519C434.135 90.9519 432.724 87.8411 430.917 86.4893C430.917 86.4893 433.645 87.0442 434.89 91.2411L437.759 92.3745C437.759 92.3745 436.112 88.1657 434.595 86.8376C434.595 86.8376 437.287 87.8352 438.455 92.7405L441.082 94.2516C441.082 94.2516 439.937 90.521 438.568 88.6793C438.568 88.6793 440.87 90.1432 441.814 94.712L443.449 95.928C443.449 95.928 442.57 93.2186 442.269 92.463C441.968 91.7075 442.121 91.5599 442.121 91.5599C443.241 92.9627 443.95 94.6484 444.169 96.4298C444.169 96.4298 447.375 99.1097 447.558 98.9208Z" fill="#0BCEB2"/>
<path opacity="0.1" d="M478.778 199.158C478.778 199.158 469.009 178.887 456.542 188.875C456.542 188.875 453.862 189.772 453.986 192.588C453.986 192.588 455.025 192.057 455.757 194.223C456.03 194.994 456.395 195.729 456.843 196.413C457.445 197.337 458.332 198.04 459.369 198.414C459.369 198.414 464.729 202.658 474.935 199.766C474.935 199.766 477.781 200.256 478.253 199.908L474.994 197.387C474.994 197.387 473.224 199.854 470.756 200.073C470.756 200.073 474.977 197.57 474.522 196.992C474.428 196.874 472.751 195.734 472.751 195.734C472.751 195.734 469.682 200.002 465.839 200.226C465.839 200.226 471.276 197.918 472.114 195.297L469.452 193.727C469.452 193.727 466.429 198.402 462.061 198.816C462.061 198.816 467.657 196.206 468.849 193.42L466.022 192.24C466.022 192.24 462.982 196.738 459.352 197.062C459.352 197.062 465.514 193.397 465.361 192.01C465.361 192.01 462.699 191.071 461.872 191.165C461.872 191.165 459.617 194.341 457.486 194.341C457.486 194.341 461.347 191.455 461.111 190.988C461.111 190.988 457.321 190.693 455.32 191.579C457.12 190.685 459.122 190.278 461.128 190.398C460.335 189.448 459.28 188.752 458.094 188.397C458.094 188.397 460.208 187.588 462.043 190.481C462.043 190.481 464.995 190.829 465.343 191.165C465.343 191.165 463.932 188.06 462.132 186.703C462.132 186.703 464.859 187.258 466.105 191.455L468.967 192.588C468.967 192.588 467.321 188.379 465.804 187.057C465.804 187.057 468.495 188.049 469.664 192.96L472.291 194.465C472.291 194.465 471.146 190.734 469.776 188.893C469.776 188.893 472.078 190.357 473.029 194.931L474.664 196.112C474.664 196.112 473.778 193.403 473.483 192.647C473.188 191.891 473.336 191.744 473.336 191.744C474.458 193.145 475.167 194.832 475.384 196.614C475.384 196.614 478.595 199.335 478.778 199.158Z" fill="#0BCEB2"/>
<path opacity="0.1" d="M119.209 462.882C126.704 462.882 132.78 462.202 132.78 461.365C132.78 460.527 126.704 459.848 119.209 459.848C111.714 459.848 105.638 460.527 105.638 461.365C105.638 462.202 111.714 462.882 119.209 462.882Z" fill="#0BCEB2"/>
<path opacity="0.1" d="M30.2464 437.098C37.7414 437.098 43.8172 436.419 43.8172 435.581C43.8172 434.743 37.7414 434.064 30.2464 434.064C22.7515 434.064 16.6757 434.743 16.6757 435.581C16.6757 436.419 22.7515 437.098 30.2464 437.098Z" fill="#0BCEB2"/>
<path opacity="0.1" d="M187.021 480.006C194.516 480.006 200.592 479.327 200.592 478.489C200.592 477.651 194.516 476.972 187.021 476.972C179.527 476.972 173.451 477.651 173.451 478.489C173.451 479.327 179.527 480.006 187.021 480.006Z" fill="#0BCEB2"/>
<path opacity="0.1" d="M534.525 442.705C542.02 442.705 548.096 442.026 548.096 441.188C548.096 440.351 542.02 439.671 534.525 439.671C527.03 439.671 520.954 440.351 520.954 441.188C520.954 442.026 527.03 442.705 534.525 442.705Z" fill="#0BCEB2"/>
<path opacity="0.1" d="M421.597 435.345C429.092 435.345 435.168 434.665 435.168 433.828C435.168 432.99 429.092 432.311 421.597 432.311C414.102 432.311 408.026 432.99 408.026 433.828C408.026 434.665 414.102 435.345 421.597 435.345Z" fill="#0BCEB2"/>
<path opacity="0.1" d="M348.542 471.246C357.407 471.246 364.592 470.012 364.592 468.489C364.592 466.967 357.407 465.733 348.542 465.733C339.678 465.733 332.493 466.967 332.493 468.489C332.493 470.012 339.678 471.246 348.542 471.246Z" fill="#0BCEB2"/>
<path d="M355.703 440.781C355.703 440.781 333.354 452.327 344.9 465.928C344.9 465.928 345.987 468.879 349.127 468.672C349.127 468.672 348.501 467.527 350.898 466.612C351.751 466.283 352.561 465.853 353.312 465.331C354.327 464.63 355.085 463.616 355.473 462.445C355.473 462.445 360.041 456.329 356.5 445.014C356.5 445.014 356.96 441.814 356.559 441.295L353.843 445.02C353.843 445.02 356.647 446.903 356.972 449.671C356.972 449.671 354.02 445.025 353.43 445.539C353.3 445.645 352.084 447.575 352.084 447.575C352.084 447.575 356.948 450.875 357.308 455.161C357.308 455.161 354.569 449.157 351.612 448.302L349.918 451.324C349.918 451.324 355.23 454.559 355.821 459.423C355.821 459.423 352.734 453.254 349.581 452.009L348.336 455.202C348.336 455.202 353.46 458.46 353.932 462.51C353.932 462.51 349.646 455.739 348.106 455.952C348.106 455.952 347.138 458.95 347.267 459.877C347.267 459.877 350.886 462.297 350.951 464.676C350.951 464.676 347.61 460.456 347.096 460.733C347.096 460.733 346.884 464.977 347.911 467.185C347.911 467.185 346.14 464.033 346.429 460.733C345.394 461.649 344.649 462.847 344.287 464.18C344.287 464.18 343.324 461.849 346.494 459.7C346.494 459.7 346.795 456.4 347.161 455.993C347.161 455.993 343.732 457.669 342.274 459.724C342.274 459.724 342.811 456.66 347.462 455.137L348.643 451.902C348.643 451.902 343.991 453.874 342.557 455.609C342.557 455.609 343.59 452.569 349.009 451.111L350.614 448.16C350.614 448.16 346.482 449.553 344.464 451.111C344.464 451.111 346.028 448.496 351.11 447.292L352.415 445.433C352.415 445.433 349.416 446.501 348.578 446.885C347.74 447.269 347.574 447.08 347.574 447.08C349.107 445.784 350.968 444.938 352.952 444.636C352.952 444.636 355.909 440.982 355.703 440.781Z" fill="#0BCEB2"/>
<path d="M422.034 222.71C418.173 212.221 396.923 211.235 387.702 213.909C381.15 215.816 367.337 217.964 359.959 219.045L359.481 218.59C360.437 218.307 360.46 217.61 360.342 216.577C360.274 215.216 360.293 213.851 360.401 212.492C364.923 213.897 368.949 210.574 368.949 210.574C374.261 208.213 372.833 198.107 373.848 195.345C374.61 193.279 375.43 181.107 375.796 175.039H375.873L375.914 173.002C375.967 172.123 375.991 171.609 375.991 171.609C375.991 171.609 376.51 156.769 377.526 153.765C378.47 151.002 379.238 137.083 379.356 134.875C379.356 134.686 379.356 134.586 379.356 134.586L379.279 133.299C379.332 132.361 379.356 131.316 379.35 130.218C379.35 125.171 378.824 118.813 378.759 117.786C378.759 117.639 378.759 117.462 378.759 117.249C378.801 115.095 378.529 104.304 369.35 100.225C365.968 98.7141 361.901 96.9137 357.964 95.1606C356.948 86.3948 354.628 77.6762 354.829 68.8454C354.829 67.5173 354.947 66.1891 355.077 64.8669C355.077 65.2506 355.036 65.6402 355.03 66.0475C355.03 66.9034 355.03 67.7652 355.03 68.6211C355.378 57.5768 359.551 46.4735 359.162 35.6653C359.126 36.7219 359.05 37.7844 358.949 38.8469C359.153 35.1912 358.77 31.5263 357.816 27.9915C357.462 26.746 356.984 25.4591 355.962 24.6268C354.997 23.9565 353.89 23.5182 352.728 23.3459C349.934 22.6309 347.097 22.1024 344.233 21.7639C343.798 20.4321 343.153 19.1786 342.321 18.051C336.335 9.83417 327.469 2.11318 316.986 0.342314C311.726 -0.543121 305.676 0.194741 302.098 3.95489C301.725 4.28521 301.374 4.64017 301.048 5.01741C299.123 7.31364 298.297 10.33 296.325 12.6203C296.196 12.7738 296.048 12.9155 295.906 13.0631C292.046 16.5163 286.031 17.2364 281.739 20.3354C280.983 20.8918 280.274 21.5097 279.62 22.183C277.891 23.8966 276.34 25.7814 274.992 27.8085C273.062 30.5238 271.079 33.3513 270.465 36.592C269.231 43.0852 273.652 49.2419 274.473 55.7764C276.303 70.3979 260.123 83.3725 263.187 97.7992C264.004 101.343 265.809 104.583 268.393 107.143C262.083 112.857 256.711 118.4 256.711 118.4V118.731H255.714L255.814 119.911H255.714L256.263 126.316L255.714 135.643C255.714 135.643 255.714 135.743 255.714 135.932V135.979V136.233C255.714 136.233 255.714 136.333 255.714 136.522H255.749C255.932 139.94 256.658 152.23 257.52 154.821C258.535 157.826 259.049 172.666 259.049 172.666C259.049 172.666 260.17 193.639 261.197 196.413C262.224 199.187 260.766 209.264 266.097 211.642C267.656 212.839 269.502 213.604 271.451 213.862C271.179 216.07 271.35 217.669 272.23 218.171C272.606 218.392 273.033 218.514 273.469 218.525C273.108 219.062 272.786 219.624 272.507 220.208C270.392 219.987 268.313 219.497 266.321 218.75C260.595 216.388 241.594 211.076 236.075 214.812C230.555 218.549 217.274 221.937 223.407 236.978C229.54 252.018 232.397 252.396 232.397 252.396C234.285 253.766 235.941 255.431 237.302 257.325C239.144 260.093 256.304 266.427 260.595 266.427C262.419 266.399 264.243 266.49 266.055 266.699C266.055 266.699 261.398 270.784 262.018 273.157C262.638 275.53 260.601 294.525 260.601 294.525C260.601 294.525 265.323 299.283 267.342 293.043L267.413 293.138C267.791 293.651 269.833 295.971 273.676 293.043C275.249 291.85 276.919 290.792 278.67 289.879L297.276 287.247C299.216 287.125 301.161 287.112 303.102 287.205C306.053 287.447 308.952 285.7 310.776 284.348C314.63 285.812 318.963 287.412 321.023 287.996C325.202 289.177 344.41 294.33 348.903 292.719C349.836 292.347 350.667 291.756 351.323 290.995L355.608 291.131L353.601 291.532C353.601 291.532 357.509 291.597 362.822 291.668L362.597 291.798L369.262 291.739C379.013 291.827 389.969 291.857 391.409 291.532C393.664 291.03 405.382 291.385 408.835 291.532H409.797C409.797 291.532 422.671 288.964 417.358 275.901C413.274 265.866 400.718 262.95 395.146 262.148C396.716 261.835 398.068 261.593 398.965 261.451C402.855 260.861 410.411 257.319 411.025 256.109C411.639 254.899 417.972 251.387 419.607 249.386C421.243 247.384 425.912 233.2 422.034 222.71ZM315.398 252.065L314.766 252.272L314.341 252.414L313.526 253.217C312.877 252.78 312.181 252.319 311.455 251.847C312.736 251.924 314.052 252.001 315.398 252.065Z" fill="url(#paint0_linear)"/>
<path d="M353.035 189.825C353.035 189.825 362.066 213.437 367.202 211.076C372.337 208.715 370.944 198.68 371.924 195.929C372.904 193.178 373.99 172.317 373.99 172.317C373.99 172.317 374.486 157.56 375.466 154.573C376.375 151.828 377.112 137.986 377.236 135.808C377.236 135.619 377.236 135.519 377.236 135.519L376.262 118.4L370.749 117.025L357.964 121.747L356.193 131.859L355.502 135.808L355.207 137.49L353.035 189.825Z" fill="#BE6F72"/>
<path opacity="0.1" d="M356.01 185.87C356.01 185.87 364.628 192.924 367.225 193.544C369.822 194.164 371.416 199.665 371.416 199.665" fill="black"/>
<path d="M282.406 190.858C282.406 190.858 273.375 214.47 268.239 212.109C263.104 209.748 264.497 199.713 263.517 196.962C262.537 194.211 261.451 173.35 261.451 173.35C261.451 173.35 260.955 158.593 259.975 155.606C259.066 152.861 258.329 139.019 258.205 136.841C258.205 136.652 258.205 136.552 258.205 136.552L259.184 119.433L264.698 118.058L277.483 122.78L279.254 132.892L279.945 136.841L280.24 138.523L282.406 190.858Z" fill="#BE6F72"/>
<path d="M341.217 64.501H321.059V95.9221H341.217V64.501Z" fill="#3E373A"/>
<path opacity="0.1" d="M341.217 64.501H321.059V95.9221H341.217V64.501Z" fill="black"/>
<path d="M278.865 214.376C278.865 214.376 271.976 221.949 274.532 223.324C277.088 224.7 293.622 250.478 293.622 250.478C293.622 250.478 347.929 257.166 358.17 247.131C368.412 237.096 368.205 219.169 368.205 219.169C368.205 219.169 359.976 220.94 359.079 219.977C358.182 219.015 353.253 214.376 353.253 214.376C353.253 214.376 283.587 210.149 278.865 214.376Z" fill="#4B4B5B"/>
<path opacity="0.02" d="M278.865 214.376C278.865 214.376 271.976 221.949 274.532 223.324C277.088 224.7 293.622 250.478 293.622 250.478C293.622 250.478 347.929 257.166 358.17 247.131C368.412 237.096 368.205 219.169 368.205 219.169C368.205 219.169 359.976 220.94 359.079 219.977C358.182 219.015 353.253 214.376 353.253 214.376C353.253 214.376 283.587 210.149 278.865 214.376Z" fill="black"/>
<path d="M376.628 118.648L358.92 132.815L353.566 133.205L351.6 133.346L318.585 135.767L284.348 133.264L279.254 132.892L272.761 132.42L259.184 119.433C259.184 119.433 268.794 109.139 277.212 102.191C280.529 99.4461 283.664 97.2266 285.948 96.353L286.338 96.2172C287.775 95.6569 289.057 94.7625 290.08 93.6081C296.727 86.7549 302.872 69.8431 302.872 69.8431C302.872 69.8431 332.191 54.6962 328.65 74.5654C325.108 94.4345 341.831 89.5233 341.831 89.5233L347.344 92.038L349.522 93.0356L355.077 95.5797L367.609 101.329C377.443 105.857 376.628 118.648 376.628 118.648Z" fill="#BE6F72"/>
<path opacity="0.1" d="M317.21 86.023C331.773 86.023 343.578 74.2175 343.578 59.6547C343.578 45.092 331.773 33.2865 317.21 33.2865C302.647 33.2865 290.842 45.092 290.842 59.6547C290.842 74.2175 302.647 86.023 317.21 86.023Z" fill="black"/>
<path opacity="0.1" d="M376.67 137.431H258.205C258.205 137.242 258.205 137.142 258.205 137.142L259.184 120.024C259.184 120.024 268.794 109.729 277.212 102.781L351.588 99.8297L355.047 96.1818L367.579 101.931C377.419 106.453 376.628 119.244 376.628 119.244C376.628 119.244 377.974 134.067 376.67 137.431Z" fill="black"/>
<path d="M376.67 136.841H258.205C258.205 136.652 258.205 136.552 258.205 136.552L259.184 119.433C259.184 119.433 268.794 109.139 277.212 102.191L351.588 99.2395L355.047 95.5916L367.579 101.341C377.419 105.863 376.628 118.654 376.628 118.654C376.628 118.654 377.974 133.476 376.67 136.841Z" fill="#E7C7CA"/>
<path opacity="0.1" d="M298.22 88.8387C298.22 88.8387 316.909 112.651 341.801 88.3487C366.694 64.0465 344.558 142.555 344.558 142.555L290.842 148.93L298.22 88.8387Z" fill="black"/>
<path d="M298.22 90.0192C298.22 90.0192 316.909 113.831 341.801 89.5293C366.694 65.227 344.558 143.736 344.558 143.736L290.842 150.111L298.22 90.0192Z" fill="#E7C7CA"/>
<path opacity="0.1" d="M349.493 94.1985L351.47 124.356L353.589 134.391L355.207 142.065C355.207 142.065 359.339 201.094 358.158 204.045C356.978 206.997 358.749 209.358 358.996 210.928C359.244 212.498 358.749 216.442 358.943 218.212C359.138 219.983 358.943 220.768 354.422 220.137C349.9 219.505 343.596 218.407 343.596 218.407C343.596 218.407 327.658 219.588 322.151 217.622C316.643 215.656 306.213 215.651 306.213 215.651C306.213 215.651 290.47 216.046 285.358 215.456C280.246 214.865 277.483 221.754 274.142 219.783C270.801 217.811 278.074 198.733 280.435 193.22C282.796 187.706 277.289 173.74 277.289 173.74L284.372 134.444L285.948 125.537V97.5336L286.338 97.3978C287.775 96.8375 289.057 95.9431 290.08 94.7888L291.851 122.969L347.338 124.941V93.2245" fill="black"/>
<path d="M349.493 93.0179L351.47 123.176L353.589 133.211L355.207 140.885C355.207 140.885 359.339 199.914 358.158 202.865C356.978 205.816 358.749 208.178 358.996 209.748C359.244 211.318 358.749 215.261 358.943 217.032C359.138 218.803 358.943 219.588 354.422 218.956C349.9 218.325 343.596 217.227 343.596 217.227C343.596 217.227 327.658 218.407 322.151 216.442C316.643 214.476 306.213 214.47 306.213 214.47C306.213 214.47 290.47 214.866 285.358 214.275C280.246 213.685 277.483 220.574 274.142 218.602C270.801 216.631 278.074 197.552 280.435 192.039C282.796 186.526 277.289 172.559 277.289 172.559L284.372 133.264L285.948 124.356V96.3531L286.338 96.2173C287.775 95.6569 289.057 94.7626 290.08 93.6082L291.851 121.789L347.338 123.76V92.0439" fill="#E7C7CA"/>
<path opacity="0.1" d="M355.874 30.0811C355.537 28.8474 355.071 27.5665 354.103 26.7401C353.179 26.0763 352.111 25.6395 350.986 25.4651C348.294 24.7571 345.557 24.2325 342.793 23.8949C342.398 22.5842 341.801 21.3433 341.022 20.2174C335.237 12.0478 326.678 4.34451 316.608 2.60316C311.337 1.68821 305.227 2.50871 301.851 6.66435C299.997 8.94877 299.2 11.977 297.329 14.2201C293.722 18.5764 287.211 19.1136 282.666 22.4841C280.24 24.255 278.481 26.8227 276.763 29.3138C274.904 32.0114 272.991 34.8212 272.401 38.0442C271.22 44.4842 275.476 50.6232 276.262 57.1223C278.032 71.6611 262.449 84.559 265.394 98.903C267.112 107.267 274.839 113.159 282.831 116.145C285.647 117.202 288.864 118.253 290.181 120.956C290.771 122.137 290.871 123.5 291.426 124.693C293.291 128.671 299.424 128.825 302.718 125.926C306.012 123.028 307.051 118.341 307.441 113.967C309.023 94.8654 301.372 75.9939 302.264 56.8449C302.529 51.0541 304.159 44.4842 309.347 41.8633C316.33 38.3216 324.73 44.2245 332.416 43.097C336.053 51.9463 336.825 61.7129 334.624 71.0236C333.402 76.1178 331.288 81.0586 331.135 86.3121C330.905 94.3106 335.22 101.618 338.95 108.69C339.751 110.012 340.286 111.478 340.526 113.005C340.585 114.554 340.297 116.097 339.682 117.521C337.575 123.193 333.939 128.459 333.526 134.497C333.404 135.202 333.563 135.927 333.968 136.516C334.384 136.91 334.921 137.151 335.491 137.201C341.866 138.293 347.38 132.644 350.491 126.971C353.959 120.706 355.98 113.743 356.405 106.594C357.049 94.5762 352.739 82.7527 353.005 70.7226C353.312 57.0456 359.492 43.2741 355.874 30.0811Z" fill="black"/>
<path d="M356.464 29.4909C356.128 28.2572 355.661 26.9763 354.693 26.1499C353.769 25.4861 352.701 25.0493 351.577 24.8749C348.884 24.1669 346.147 23.6423 343.383 23.3047C342.989 21.994 342.391 20.7531 341.612 19.6272C335.828 11.4576 327.268 3.7543 317.198 2.01295C311.927 1.098 305.817 1.9185 302.441 6.07414C300.587 8.35856 299.79 11.3867 297.919 13.6298C294.313 17.9862 287.802 18.5234 283.256 21.8939C280.83 23.6648 279.071 26.2325 277.354 28.7236C275.494 31.4212 273.582 34.231 272.991 37.4539C271.811 43.894 276.067 50.033 276.852 56.5321C278.623 71.0709 263.039 83.9688 265.985 98.3128C267.702 106.677 275.429 112.568 283.422 115.555C286.237 116.612 289.454 117.663 290.771 120.366C291.361 121.547 291.461 122.91 292.016 124.103C293.882 128.081 300.015 128.235 303.309 125.336C306.602 122.438 307.641 117.751 308.031 113.377C309.613 94.2752 301.963 75.4037 302.854 56.2547C303.12 50.4639 304.749 43.894 309.938 41.2731C316.921 37.7314 325.32 43.6343 333.006 42.5068C336.643 51.3561 337.415 61.1226 335.214 70.4334C333.992 75.5276 331.879 80.4684 331.725 85.7219C331.495 93.7204 335.81 101.028 339.541 108.1C340.341 109.422 340.876 110.888 341.117 112.415C341.175 113.964 340.887 115.507 340.273 116.931C338.165 122.603 334.529 127.869 334.116 133.907C333.995 134.612 334.154 135.337 334.559 135.926C334.974 136.32 335.511 136.561 336.081 136.611C342.457 137.703 347.97 132.054 351.081 126.381C354.549 120.116 356.57 113.153 356.995 106.004C357.639 93.986 353.33 82.1625 353.595 70.1324C353.902 56.4554 360.083 42.6839 356.464 29.4909Z" fill="#3E373A"/>
<path d="M343.425 290.853L366.841 291.603L363.483 274.237L345.544 275.943L343.425 290.853Z" fill="#C3C7D9"/>
<path d="M415.983 249.693C414.407 251.658 408.309 255.2 407.719 256.381C407.129 257.561 399.85 261.103 396.108 261.693C392.366 262.283 380.566 264.845 378.399 266.221C376.847 267.212 364.386 270.353 356.199 272.094C353.981 272.619 351.736 273.023 349.475 273.304C345.933 273.499 307.175 260.318 307.175 260.318L314.648 252.644L315.061 252.502C317.174 251.788 326.938 248.488 332.357 246.918C338.46 245.147 345.544 237.869 345.544 237.869C345.544 237.869 355.968 234.327 357.35 233.932C358.731 233.536 353.808 220.16 353.808 220.16C353.808 220.16 376.434 217.02 385.288 214.358C394.142 211.696 414.608 212.681 418.344 223.112C422.081 233.542 417.583 247.727 415.983 249.693Z" fill="#4B4B5B"/>
<path d="M312.877 282.944C312.877 282.944 308.356 287.666 303.828 287.276C299.3 286.887 283.469 288.457 283.469 288.457C280.6 289.601 277.913 291.158 275.494 293.079C271.793 295.995 269.827 293.669 269.461 293.173L269.396 293.079C267.425 299.283 262.903 294.555 262.903 294.555C262.903 294.555 264.869 275.665 264.267 273.304C263.665 270.943 268.157 266.888 268.157 266.888L273.469 265.536L286.928 262.089L306.213 268.777L312.877 282.944Z" fill="#E7C7CA"/>
<path opacity="0.1" d="M273.446 265.536L269.461 293.173L269.396 293.079C267.425 299.283 262.903 294.555 262.903 294.555C262.903 294.555 264.869 275.665 264.267 273.304C263.665 270.943 268.157 266.888 268.157 266.888L273.446 265.536Z" fill="black"/>
<path opacity="0.1" d="M301.296 186.921C301.296 186.921 311.72 190.463 320.775 186.921H301.296Z" fill="black"/>
<path opacity="0.1" d="M336.884 193.615C336.884 193.615 341.211 195.775 344.558 193.615H336.884Z" fill="black"/>
<path opacity="0.1" d="M336.884 198.739C336.884 198.739 344.163 199.713 345.544 197.747L336.884 198.739Z" fill="black"/>
<path opacity="0.1" d="M334.523 209.748C334.523 209.748 348.194 207.977 351.588 205.616L334.523 209.748Z" fill="black"/>
<path opacity="0.1" d="M292.807 205.616C292.807 205.616 300.481 209.942 306.189 209.748L292.807 205.616Z" fill="black"/>
<path opacity="0.1" d="M356.193 272.094C353.975 272.619 351.731 273.023 349.469 273.304C345.927 273.499 307.169 260.318 307.169 260.318L314.642 252.644L315.055 252.502C316.236 253.335 317.204 254.049 317.895 254.592C321.147 257.154 324.287 253.807 325.468 253.807C326.649 253.807 336.878 262.266 336.878 262.266C336.878 262.266 346.323 264.432 347.899 266.398C349.475 268.363 354.983 267.974 355.962 269.349C356.258 269.774 356.293 270.819 356.193 272.094Z" fill="black"/>
<path d="M283.469 220.963C283.469 220.963 273.918 221.512 268.411 219.192C262.903 216.872 244.604 211.518 239.292 215.279C233.979 219.039 221.187 222.362 227.09 237.32C232.993 252.278 235.75 252.668 235.75 252.668C237.576 254.037 239.171 255.691 240.472 257.567C242.243 260.324 258.771 266.616 262.903 266.616C267.035 266.616 274.314 266.616 284.543 273.7C294.773 280.783 304.023 281.574 304.023 281.574C304.023 281.574 317.009 286.887 321.053 288.067C325.096 289.248 343.572 294.36 347.905 292.79C352.238 291.219 354.988 281.373 354.988 281.373C354.988 281.373 356.954 272.519 355.968 271.144C354.983 269.768 349.475 270.158 347.905 268.192C346.335 266.227 336.884 264.06 336.884 264.06C336.884 264.06 326.678 255.595 325.498 255.595C324.317 255.595 321.177 258.936 317.924 256.381C311.445 251.582 304.638 247.242 297.553 243.394C290.08 239.457 283.469 220.963 283.469 220.963Z" fill="#4B4B5B"/>
<path opacity="0.1" d="M264.267 226.671C265.967 226.324 267.725 226.374 269.403 226.817C271.081 227.26 272.635 228.085 273.942 229.227C278.664 233.164 294.555 241.068 294.555 241.068" fill="black"/>
<path opacity="0.1" d="M382.337 226.423C382.337 226.423 361.281 229.611 357.35 233.938L382.337 226.423Z" fill="black"/>
<path d="M406.538 291.603H405.612C402.282 291.485 391.002 291.131 388.83 291.603C386.274 292.193 352.427 291.603 352.427 291.603L359.044 290.228C359.044 290.228 356.588 281.621 358.146 280.907C358.146 280.907 349.292 275.075 355.968 271.138C362.644 267.201 369.84 268.859 369.84 268.859L386.598 263.181L389.816 262.089C389.816 262.089 408.705 263.074 413.817 276.061C418.929 289.047 406.538 291.603 406.538 291.603Z" fill="#E7C7CA"/>
<path opacity="0.1" d="M406.538 291.603H405.612C411.107 287.07 423.539 273.269 386.598 263.21L389.816 262.118C389.816 262.118 408.705 263.104 413.817 276.09C418.929 289.077 406.538 291.603 406.538 291.603Z" fill="black"/>
<path d="M371.812 276.303C372.382 276.303 372.845 275.84 372.845 275.27C372.845 274.699 372.382 274.237 371.812 274.237C371.241 274.237 370.779 274.699 370.779 275.27C370.779 275.84 371.241 276.303 371.812 276.303Z" fill="#4B4B5B"/>
<path d="M365.808 278.009C366.379 278.009 366.841 277.546 366.841 276.976C366.841 276.405 366.379 275.943 365.808 275.943C365.238 275.943 364.775 276.405 364.775 276.976C364.775 277.546 365.238 278.009 365.808 278.009Z" fill="#4B4B5B"/>
<g opacity="0.1">
<path opacity="0.1" d="M336.56 58.6807C336.788 52.188 335.634 45.7209 333.171 39.7088C325.498 40.8539 317.092 34.9333 310.103 38.4751C304.932 41.0959 303.309 47.6659 303.019 53.4566C302.948 54.9855 302.937 56.5143 302.966 58.0432C302.966 57.5001 302.966 56.9511 303.019 56.4081C303.291 50.6173 304.914 44.0474 310.103 41.4265C317.092 37.8848 325.486 43.7877 333.171 42.6602C335.257 47.7527 336.404 53.18 336.56 58.6807Z" fill="black"/>
<path opacity="0.1" d="M277.094 57.6004C277.195 56.3142 277.169 55.0211 277.017 53.7399C276.391 48.5454 273.552 43.581 273.039 38.5164C272.377 44.6259 276.267 50.4933 277.017 56.6914C277.094 57.0101 277.094 57.2935 277.094 57.6004Z" fill="black"/>
<path opacity="0.1" d="M308.196 110.573C307.83 114.953 306.797 119.634 303.474 122.538C300.151 125.442 294.029 125.283 292.182 121.305C291.591 120.124 291.503 118.749 290.93 117.568C289.62 114.864 286.397 113.814 283.581 112.757C275.583 109.764 267.868 103.903 266.15 95.5148C265.996 94.7549 265.892 93.9859 265.837 93.2126C265.692 94.9698 265.797 96.7387 266.15 98.4662C267.868 106.831 275.594 112.716 283.581 115.709C286.397 116.765 289.62 117.816 290.93 120.519C291.521 121.7 291.621 123.064 292.182 124.256C294.041 128.235 300.174 128.388 303.474 125.49C306.774 122.591 307.801 117.904 308.196 113.525C308.376 111.219 308.437 108.906 308.379 106.595C308.379 107.934 308.302 109.257 308.196 110.573Z" fill="black"/>
<path opacity="0.1" d="M353.79 67.3343C353.79 68.1902 353.79 69.0403 353.79 69.8903C354.121 58.9109 358.147 47.8725 357.751 37.1233C357.444 47.0638 354.014 57.2286 353.79 67.3343Z" fill="black"/>
<path opacity="0.1" d="M341.123 111.748C341.268 111.047 341.313 110.33 341.258 109.617C341.021 108.089 340.485 106.623 339.682 105.302C336.27 98.8086 332.38 92.1619 331.92 84.9545C331.92 85.2614 331.879 85.5448 331.873 85.8753C331.637 93.8678 335.952 101.182 339.682 108.253C340.316 109.348 340.801 110.524 341.123 111.748Z" fill="black"/>
<path opacity="0.1" d="M357.184 103.206C356.744 110.358 354.709 117.32 351.228 123.583C348.112 129.256 342.604 134.905 336.223 133.813C335.651 133.763 335.114 133.52 334.7 133.122C334.58 132.987 334.486 132.831 334.423 132.662C334.352 133.122 334.293 133.588 334.257 134.061C334.135 134.764 334.294 135.487 334.7 136.074C335.114 136.471 335.651 136.715 336.223 136.764C342.604 137.856 348.112 132.207 351.228 126.534C354.709 120.271 356.744 113.309 357.184 106.158C357.255 104.776 357.261 103.401 357.22 102.026C357.208 102.421 357.208 102.811 357.184 103.206Z" fill="black"/>
</g>
<path opacity="0.1" d="M358.146 280.907C358.146 280.907 373.087 287.176 382.939 273.304" stroke="black" stroke-miterlimit="10"/>
<path opacity="0.1" d="M361.086 291.863C361.086 291.863 373.287 283.929 388.83 291.603" stroke="black" stroke-miterlimit="10"/>
<path opacity="0.1" d="M279.414 290.063C279.414 290.063 284.537 278.505 298.22 287.318" stroke="black" stroke-miterlimit="10"/>
<path opacity="0.1" d="M262.803 119.138L273.251 109.694C273.251 109.694 313.763 107.037 315.439 120.809C315.439 120.809 329.801 104.481 360.006 108.117L372.786 118.294L337.463 133.795L303.137 145.701L277.855 134.385L262.803 119.138Z" fill="black"/>
<path d="M262.803 119.729L273.251 110.284C273.251 110.284 313.763 107.628 315.439 121.399C315.439 121.399 329.801 105.072 360.006 108.708L372.786 118.884L337.463 134.385L303.137 146.292L277.855 134.976L262.803 119.729Z" fill="#D5D6DB"/>
<path opacity="0.1" d="M258.181 120.909L262.803 176.201L311.797 178.663L309.672 123.607L309.631 122.68L258.181 120.909Z" fill="black"/>
<path d="M258.181 119.729L262.803 175.021L311.797 177.482L309.672 122.426L309.631 121.499L258.181 119.729Z" fill="#0BCEB2"/>
<path opacity="0.1" d="M375.029 119.729L324.488 127.308V182.848L373.878 175.712L375.029 119.729Z" fill="black"/>
<path d="M375.029 118.548L324.488 126.127V181.668L373.878 174.531L375.029 118.548Z" fill="#0BCEB2"/>
<path opacity="0.3" d="M363.111 132.101L335.81 135.135L336.406 144.438L363.093 141.522L363.111 132.101Z" fill="white"/>
<path d="M265.459 204.63L268.239 212.109C268.239 212.109 272.371 215.651 276.893 213.88C281.415 212.109 285.358 211.229 287.324 209.506C289.289 207.782 292.046 199.122 292.046 199.122C292.046 199.122 294.802 189.678 297.553 187.317C300.304 184.955 307.588 152.425 297.553 155.606C287.518 158.788 279.845 188.302 279.845 188.302C279.845 188.302 278.074 190.463 275.518 190.664C272.962 190.864 267.844 190.268 266.858 192.434C265.872 194.601 262.508 200.303 265.459 204.63Z" fill="#BE6F72"/>
<path opacity="0.1" d="M324.488 127.302C321.901 127.885 319.212 127.855 316.639 127.213C314.065 126.571 311.677 125.336 309.666 123.607L311.797 178.657C311.797 178.657 316.814 184.088 324.488 182.848V127.302Z" fill="black"/>
<path d="M324.488 126.121C321.901 126.704 319.212 126.674 316.639 126.032C314.065 125.391 311.677 124.156 309.666 122.426L311.797 177.477C311.797 177.477 316.814 182.907 324.488 181.668V126.121Z" fill="#0BCEB2"/>
<path opacity="0.1" d="M324.488 126.121C321.901 126.704 319.212 126.674 316.639 126.032C314.065 125.391 311.677 124.156 309.666 122.426L311.797 177.477C311.797 177.477 316.814 182.907 324.488 181.668V126.121Z" fill="black"/>
<path opacity="0.1" d="M325.669 119.917C325.669 119.917 346.229 113.631 351.588 114.516L325.669 119.917Z" fill="black"/>
<path opacity="0.1" d="M302.671 117.173C302.671 117.173 282.743 112.45 279.414 113.79L302.671 117.173Z" fill="black"/>
<path opacity="0.1" d="M338.632 120.702C338.632 120.702 352.379 115.661 357.35 118.058L338.632 120.702Z" fill="black"/>
<path opacity="0.1" d="M331.707 247.16C333.838 245.56 336.105 244.152 338.484 242.951C342.026 241.246 348.519 236.818 348.519 236.818" fill="black"/>
<path opacity="0.1" d="M279.414 186.921C279.414 186.921 270.79 193.975 268.198 194.595C265.607 195.215 264.007 200.716 264.007 200.716" fill="black"/>
<path d="M369.958 203.579L367.207 211.076C367.207 211.076 363.075 214.618 358.548 212.847C354.02 211.076 350.089 210.196 348.117 208.473C346.146 206.749 343.395 198.089 343.395 198.089C343.395 198.089 340.644 188.645 337.888 186.284C335.131 183.922 327.853 151.392 337.888 154.573C347.923 157.755 355.596 187.269 355.596 187.269C355.596 187.269 357.367 189.43 359.923 189.631C362.479 189.831 367.597 189.235 368.583 191.401C369.569 193.568 372.91 199.27 369.958 203.579Z" fill="#BE6F72"/>
<path opacity="0.1" d="M365.136 189.79C365.136 189.79 370.773 193.414 370.749 197.747L365.136 189.79Z" fill="black"/>
<path d="M317.304 84.7301C331.867 84.7301 343.673 72.9247 343.673 58.3619C343.673 43.7991 331.867 31.9937 317.304 31.9937C302.742 31.9937 290.936 43.7991 290.936 58.3619C290.936 72.9247 302.742 84.7301 317.304 84.7301Z" fill="#BE6F72"/>
<path d="M300.747 51.2843C303.946 50.7826 306.75 48.9232 309.808 47.8548C316.649 45.4523 324.217 47.0992 331.141 49.2656C333.797 50.0979 336.495 51.0364 339.281 51.0364C342.067 51.0364 345.024 49.8972 346.447 47.4947C347.757 45.287 347.504 42.4182 346.4 40.0984C345.296 37.7785 343.448 35.9132 341.583 34.1541C335.444 28.3575 327.829 22.9386 319.406 23.5289C316.018 23.7709 312.777 24.981 309.66 26.321C305.736 28.0122 301.916 29.936 298.22 32.0822C295.381 33.7291 290.121 35.9309 288.486 38.9414C284.768 45.7238 294.962 52.1934 300.747 51.2843Z" fill="#3E373A"/>
<path opacity="0.1" d="M346.447 45.0155C345.024 47.418 342.067 48.5573 339.281 48.5573C336.495 48.5573 333.797 47.6541 331.135 46.8218C324.211 44.6555 316.649 43.0027 309.802 45.411C306.75 46.4795 303.94 48.3625 300.741 48.8347C296.078 49.5667 288.569 45.5055 287.754 40.3405C286.84 46.3083 295.546 51.4202 300.741 50.6056C303.94 50.1038 306.75 48.2444 309.802 47.1819C316.649 44.7735 324.211 46.4263 331.135 48.5927C333.797 49.425 336.489 50.3636 339.281 50.3282C342.073 50.2927 345.024 49.1948 346.447 46.7864C347.184 45.4762 347.474 43.9613 347.273 42.4714C347.181 43.3684 346.9 44.2356 346.447 45.0155Z" fill="black"/>
<path d="M560.433 364.923C560.433 364.923 563.933 369.498 558.815 376.41C553.698 383.322 549.483 389.154 551.183 393.464C551.183 393.464 558.904 380.631 565.185 380.448C571.465 380.265 567.333 372.638 560.433 364.923Z" fill="#0BCEB2"/>
<path opacity="0.1" d="M560.433 364.923C560.738 365.365 560.978 365.848 561.147 366.357C567.274 373.559 570.545 380.282 564.648 380.448C559.158 380.607 552.576 390.424 551 392.897C551.05 393.097 551.112 393.294 551.183 393.487C551.183 393.487 558.904 380.654 565.185 380.471C571.465 380.288 567.333 372.638 560.433 364.923Z" fill="black"/>
<path d="M566.926 370.755C566.926 372.367 566.743 373.671 566.525 373.671C566.306 373.671 566.117 372.367 566.117 370.755C566.117 369.144 566.342 369.905 566.566 369.905C566.79 369.905 566.926 369.144 566.926 370.755Z" fill="#FFD037"/>
<path d="M569.163 372.679C567.753 373.447 566.519 373.913 566.413 373.718C566.306 373.524 567.363 372.739 568.774 371.948C570.185 371.157 569.63 371.735 569.736 371.948C569.842 372.16 570.58 371.906 569.163 372.679Z" fill="#FFD037"/>
<path d="M541.933 364.923C541.933 364.923 538.433 369.498 543.551 376.41C548.668 383.322 552.883 389.154 551.177 393.464C551.177 393.464 543.462 380.631 537.175 380.448C530.889 380.265 535.05 372.638 541.933 364.923Z" fill="#0BCEB2"/>
<path opacity="0.1" d="M541.933 364.923C541.628 365.365 541.388 365.848 541.219 366.357C535.092 373.559 531.822 380.282 537.719 380.448C543.202 380.607 549.79 390.424 551.366 392.897C551.317 393.098 551.253 393.295 551.177 393.487C551.177 393.487 543.462 380.654 537.175 380.471C530.889 380.288 535.05 372.638 541.933 364.923Z" fill="black"/>
<path d="M535.428 370.755C535.428 372.367 535.605 373.671 535.83 373.671C536.054 373.671 536.237 372.367 536.237 370.755C536.237 369.144 536.007 369.905 535.788 369.905C535.57 369.905 535.428 369.144 535.428 370.755Z" fill="#FFD037"/>
<path d="M533.197 372.679C534.608 373.447 535.841 373.913 535.948 373.718C536.054 373.524 534.997 372.739 533.586 371.948C532.176 371.157 532.731 371.735 532.624 371.948C532.518 372.16 531.78 371.906 533.197 372.679Z" fill="#FFD037"/>
<path opacity="0.1" d="M551.183 428.48C571.396 428.48 587.781 425.966 587.781 422.866C587.781 419.766 571.396 417.252 551.183 417.252C530.971 417.252 514.585 419.766 514.585 422.866C514.585 425.966 530.971 428.48 551.183 428.48Z" fill="#0BCEB2"/>
<path d="M570.019 387.295L569.842 388.724L569.594 390.742L569.494 391.586L569.246 393.605L569.14 394.449L568.898 396.462L566.094 419.425C565.846 421.473 562.499 423.073 558.455 423.073H543.905C539.861 423.073 536.52 421.473 536.266 419.425L533.463 396.462L533.215 394.449L533.114 393.605L532.866 391.586L532.76 390.742L532.518 388.724L532.341 387.295C532.205 386.115 534.012 385.158 536.302 385.158H566.064C568.349 385.158 570.161 386.132 570.019 387.295Z" fill="#65617D"/>
<path d="M569.842 388.724L569.6 390.742H532.766L532.518 388.724H569.842Z" fill="#9D9CB5"/>
<path d="M569.494 391.586L569.252 393.605H533.114L532.866 391.586H569.494Z" fill="#9D9CB5"/>
<path d="M569.146 394.449L568.898 396.468H533.463L533.221 394.449H569.146Z" fill="#9D9CB5"/>
</g>
<defs>
<linearGradient id="paint0_linear" x1="322.676" y1="296.278" x2="322.676" y2="-5.56777e-05" gradientUnits="userSpaceOnUse">
<stop stop-color="#808080" stop-opacity="0.25"/>
<stop offset="0.54" stop-color="#808080" stop-opacity="0.12"/>
<stop offset="1" stop-color="#808080" stop-opacity="0.1"/>
</linearGradient>
<clipPath id="clip0">
<rect width="603.772" height="480" fill="white"/>
</clipPath>
</defs>
</svg>
