<svg viewBox="0 0 32 32" fill="none" xmlns="http://www.w3.org/2000/svg">
<g clip-path="url(#clip0)">
<path d="M30.234 32C31.2092 32 31.9999 31.2092 31.9999 30.2339V1.76609C31.9999 0.790483 31.2091 0 30.234 0H1.76621C0.790607 0 0.00012207 0.790603 0.00012207 1.76609V30.2338C0.00012207 31.2092 0.790607 31.9999 1.76621 31.9999H30.234V32Z" fill="#485A96"/>
<path d="M22.0795 31.9999V19.6078H26.2389L26.8617 14.7784H22.0793V11.695C22.0793 10.2967 22.4676 9.34389 24.4727 9.34389L27.03 9.3427V5.02328C26.5877 4.96453 25.0696 4.83301 23.3036 4.83301C19.6164 4.83301 17.0921 7.0836 17.0921 11.2168V14.7784H12.9219V19.6078H17.0921V31.9998H22.0795V31.9999Z" fill="white"/>
</g>
<defs>
<clipPath id="clip0">
<rect width="32" height="32" fill="white"/>
</clipPath>
</defs>
</svg>
