<svg width="32" height="33" viewBox="0 0 32 33" fill="none" xmlns="http://www.w3.org/2000/svg">
<g clip-path="url(#clip0)">
<path d="M31.9831 16.6796C31.9831 15.338 31.8742 14.359 31.6386 13.3438H16.3187V19.3991H25.3112C25.1299 20.9039 24.1509 23.1702 21.9753 24.693L21.9448 24.8958L26.7886 28.6482L27.1242 28.6817C30.2063 25.8353 31.9831 21.6472 31.9831 16.6796Z" fill="#4285F4"/>
<path d="M16.3187 32.6342C20.7243 32.6342 24.4227 31.1837 27.1242 28.6818L21.9752 24.6931C20.5974 25.654 18.7481 26.3248 16.3187 26.3248C12.0038 26.3248 8.34156 23.4784 7.03607 19.5442L6.84471 19.5604L1.80799 23.4584L1.74213 23.6416C4.42534 28.9718 9.93689 32.6342 16.3187 32.6342Z" fill="#34A853"/>
<path d="M7.03605 19.5442C6.69158 18.529 6.49223 17.4411 6.49223 16.3171C6.49223 15.1929 6.69158 14.1052 7.01792 13.0899L7.0088 12.8737L1.90895 8.91309L1.74209 8.99245C0.636208 11.2043 0.00164795 13.6882 0.00164795 16.3171C0.00164795 18.9459 0.636208 21.4297 1.74209 23.6416L7.03605 19.5442Z" fill="#FBBC05"/>
<path d="M16.3188 6.30921C19.3827 6.30921 21.4495 7.6327 22.628 8.73871L27.2331 4.24243C24.4048 1.61358 20.7243 0 16.3188 0C9.93692 0 4.42536 3.66224 1.74213 8.99243L7.01797 13.0899C8.34159 9.15566 12.0038 6.30921 16.3188 6.30921Z" fill="#EB4335"/>
</g>
<defs>
<clipPath id="clip0">
<rect width="32" height="32.7466" fill="white"/>
</clipPath>
</defs>
</svg>
